<svg width="41" height="44" viewBox="0 0 41 44" fill="none" xmlns="http://www.w3.org/2000/svg">
<g clip-path="url(#clip0_2007_1963)">
<path d="M22.5962 35.8584C22.4739 37.9377 22.3638 39.8435 22.2506 41.7492C22.1722 43.065 21.3302 43.9131 20.114 43.9085C19.0155 43.904 18.2399 43.062 18.1569 41.7734C17.9215 38.1188 17.7148 34.4626 17.4417 30.8125C17.333 29.3624 17.2953 27.9033 17.1384 26.4623C16.9482 24.7194 17.072 22.9691 16.8637 21.2308C16.7792 20.5322 16.5831 19.9346 15.8769 19.6887C15.1586 19.4382 14.6758 19.8909 14.2684 20.3858C12.3701 22.6899 10.484 25.0016 8.60083 27.3178C8.01083 28.0436 7.33634 28.5204 6.33441 28.445C5.59201 28.3907 5.13179 28.0104 4.92658 27.3586C4.67006 26.5452 4.58707 25.7847 5.30532 25.0363C5.92247 24.3935 6.32234 23.5093 6.88819 22.8393C7.76337 21.8042 8.56461 20.7162 9.39603 19.6524C10.7797 17.884 12.1227 16.0823 13.4626 14.2791C14.8629 12.3945 16.7491 11.0636 19.1905 10.7663C21.7995 10.448 24.081 11.2009 25.9022 13.0705C27.3553 14.5613 28.4538 16.3554 29.7349 17.9956C31.4581 20.2047 33.1572 22.4319 34.8547 24.6591C35.2606 25.1917 35.6952 25.7168 35.6937 26.4547C35.6937 27.342 35.318 27.9516 34.5228 28.2835C33.7366 28.6125 32.8886 28.4963 32.368 27.8761C30.2932 25.4045 28.2456 22.9102 26.1889 20.4235C25.8162 19.9738 25.433 19.4955 24.769 19.6102C24.0417 19.7354 23.6494 20.2017 23.6026 20.9577C23.4653 23.1381 23.3174 25.3185 23.1711 27.4974C23.0277 29.6521 22.9206 31.8114 22.7154 33.9616C22.649 34.6527 22.5237 35.3333 22.5992 35.8569L22.5962 35.8584ZM17.9698 15.9586C17.8958 17.131 18.857 18.2416 20.0114 18.317C21.2502 18.3985 22.4513 17.389 22.5041 16.2211C22.5569 15.0608 21.4781 13.9049 20.2619 13.8174C19.1618 13.7389 18.0437 14.7831 17.9698 15.9586Z" fill="#D8D7D7"/>
<path d="M23.9236 4.00038C23.9191 5.94992 22.1009 7.73498 20.1347 7.71838C18.1414 7.70179 16.4846 5.9982 16.4952 3.97473C16.5057 1.86071 18.1656 0.205413 20.269 0.20994C22.2864 0.214466 23.9282 1.91805 23.9236 4.00038Z" fill="#D8D7D7"/>
<path d="M9.41542 9.1216C8.78167 9.16386 8.17055 8.56632 8.11774 7.85259C8.03928 6.7888 8.68812 5.98755 9.66289 5.94681C10.4747 5.91211 11.1628 6.52322 11.2488 7.31692C11.368 8.41995 10.5501 9.21214 9.41391 9.12311L9.41542 9.1216Z" fill="#D8D7D7"/>
<path d="M1.72674 24.5084C0.676526 24.5099 0.229882 24.0195 0.234409 22.8666C0.237427 22.0729 0.952661 21.3683 1.75089 21.3728C2.65926 21.3788 3.39109 22.0714 3.39864 22.9315C3.40618 23.8852 2.74678 24.5068 1.72674 24.5084Z" fill="#D8D7D7"/>
<path d="M9.46168 38.8446C8.58499 38.8219 8.01612 38.2063 8.07497 37.2979C8.14137 36.2945 8.69816 35.7694 9.62465 35.7256C10.5391 35.6834 11.2498 36.4092 11.2422 37.3024C11.2347 38.2727 10.5421 38.8732 9.46017 38.8446H9.46168Z" fill="#D8D7D7"/>
<path d="M29.194 37.3961C29.185 36.3745 29.8202 35.6729 30.7467 35.6819C31.6113 35.691 32.2813 36.3821 32.2752 37.2618C32.2677 38.1717 31.5947 38.7768 30.6833 38.8613C29.8383 38.9412 29.0959 38.2456 29.1955 37.3961H29.194Z" fill="#D8D7D7"/>
<path d="M32.2288 7.54638C32.2273 8.39742 31.512 9.11567 30.661 9.12171C29.7888 9.12774 29.1385 8.46079 29.1219 7.54336C29.1053 6.62895 29.7466 5.95295 30.6369 5.94239C31.5724 5.93182 32.2303 6.59424 32.2288 7.54789V7.54638Z" fill="#D8D7D7"/>
<path d="M38.2842 24.5112C37.4392 24.4976 37.0092 23.9499 37.0212 22.9072C37.0288 22.1663 37.5373 21.4994 38.0911 21.5688C38.6132 21.6337 39.2077 21.2474 39.6574 21.8676C39.9169 22.2267 40.1176 22.5707 40.113 23.0174C40.101 23.9635 39.4069 24.5308 38.2857 24.5112H38.2842Z" fill="#D8D7D7"/>
</g>
<defs>
<clipPath id="clip0_2007_1963">
<rect width="39.8765" height="43.6987" fill="white" transform="translate(0.234375 0.209869)"/>
</clipPath>
</defs>
</svg>
