<svg xmlns="http://www.w3.org/2000/svg" width="32" height="32" viewBox="0 0 32 32">
    <g fill="none" fill-rule="evenodd">
        <circle cx="16" cy="16" r="16" fill="#C7DCE6" fill-rule="nonzero"/>
        <path fill="#006999" d="M8.2 11.976c0-.067.079-.101.128-.052l4.038 4.11a.08.08 0 010 .105l-2.823 3.007a.487.487 0 00.345.833.492.492 0 00.344-.143l2.813-2.996c.03-.03.079-.03.109 0l.66.671a3.08 3.08 0 002.197.934 3.02 3.02 0 002.153-.908l.686-.697c.03-.03.079-.03.109 0l2.812 2.996a.492.492 0 00.69 0 .487.487 0 000-.69l-2.823-3.007a.072.072 0 010-.105l4.034-4.11c.045-.045.128-.015.128.052V20.2c0 .66-.54 1.2-1.2 1.2H9.4c-.66 0-1.2-.54-1.2-1.2zM22.608 10.6c.28 0 .536.098.742.263l-5.884 5.988c-.39.398-.911.615-1.466.615a2.039 2.039 0 01-1.463-.615l-5.883-5.988a1.17 1.17 0 01.742-.263z"/>
    </g>
</svg>
