<svg xmlns="http://www.w3.org/2000/svg" width="48" height="48" viewBox="0 0 48 48">
    <g fill="none" fill-rule="evenodd">
        <circle cx="24" cy="24" r="24" fill="#C7DCE6" fill-rule="nonzero"/>
        <path fill="#006999" d="M12.3 17.964a.11.11 0 01.191-.078l6.058 6.165a.12.12 0 010 .157l-4.235 4.511a.73.73 0 00.517 1.25.738.738 0 00.518-.215l4.219-4.494a.115.115 0 01.163 0l.99 1.007c.872.883 2.053 1.406 3.296 1.4a4.529 4.529 0 003.229-1.36l1.029-1.047a.115.115 0 01.163 0l4.219 4.494a.738.738 0 001.035 0 .73.73 0 000-1.035l-4.236-4.51a.109.109 0 010-.158l6.053-6.165c.067-.068.191-.023.191.078V30.3c0 .99-.81 1.8-1.8 1.8H14.1c-.99 0-1.8-.81-1.8-1.8zM33.911 15.9c.422 0 .805.146 1.114.394l-8.826 8.983a3.058 3.058 0 01-2.199.922 3.058 3.058 0 01-2.194-.922l-8.825-8.983a1.756 1.756 0 011.113-.394z"/>
    </g>
</svg>
