<svg width="37" height="47" viewBox="0 0 37 47" fill="none" xmlns="http://www.w3.org/2000/svg">
<g clip-path="url(#clip0_2007_1586)">
<path d="M17.6277 33.2761C17.6277 32.8021 17.6277 32.426 17.6277 32.0499C17.6261 30.4068 17.6115 28.7636 17.6292 27.1205C17.6369 26.4207 18.0916 26.107 18.6327 26.3775C18.9394 26.5309 19.0034 26.8029 19.0018 27.1189C18.9949 29.0064 18.9941 30.8931 18.991 32.7805C18.991 32.8923 18.991 33.0033 18.991 33.1058C19.0743 33.1404 19.1059 33.1096 19.1305 33.058C19.9922 31.2391 21.3571 29.8542 22.9278 28.6442C23.9783 27.8349 25.1135 27.1436 26.2865 26.5525C27.9119 25.7332 29.6337 25.1174 31.3832 24.5941C32.7196 24.1941 34.0753 23.8843 35.4471 23.633C35.8063 23.5675 36.0791 23.6623 36.2972 23.9344C36.5169 24.2088 36.3689 24.5016 36.2972 24.7768C36.2633 24.907 36.1215 24.9602 35.965 24.9895C34.5354 25.2577 33.1173 25.576 31.7192 25.9783C28.9031 26.7883 26.2503 27.9482 23.8881 29.7046C21.8858 31.1944 20.4007 33.0904 19.5668 35.4572C19.203 36.4899 19.0111 37.5674 19.0049 38.6656C18.9903 41.1689 18.9949 43.6729 18.9872 46.1769C18.9856 46.6386 18.6843 46.9576 18.2789 46.9492C17.9552 46.9422 17.7433 46.7781 17.6793 46.4636C17.6361 46.2517 17.6184 46.0313 17.6176 45.8147C17.6115 43.5419 17.6169 41.2698 17.6069 38.997C17.5914 35.3447 16.0932 32.4037 13.2809 30.1177C10.578 27.9205 7.44819 26.6072 4.10564 25.7425C3.03976 25.4673 1.96077 25.2585 0.881012 25.0473C0.193543 24.9132 0.000866517 24.3097 0.459436 23.7926C0.62822 23.6022 0.854037 23.6022 1.07985 23.6407C2.59275 23.8958 4.08946 24.2288 5.55611 24.6781C7.68788 25.3317 9.76416 26.1255 11.6801 27.2869C13.8743 28.6172 15.852 30.1817 17.1753 32.4406C17.3194 32.6865 17.4481 32.9424 17.6269 33.2738L17.6277 33.2761Z" fill="#D8D7D7"/>
<path d="M18.3293 6.56112C20.7523 6.50408 22.9681 8.51717 22.9758 11.2331C22.9828 13.8535 20.8533 16.0261 18.3223 16.0246C15.7204 16.0231 13.6364 13.8697 13.628 11.1946C13.6195 8.6004 15.846 6.47403 18.33 6.56112H18.3293Z" fill="#D8D7D7"/>
<path d="M13.3285 35.4224C12.4961 33.8455 11.2977 32.6039 9.82643 31.6158C7.76171 30.2293 5.46732 29.4478 3.02727 29.0525C2.70126 28.9993 2.3529 28.96 2.18257 28.6078C2.07159 28.3773 2.05926 28.1415 2.20338 27.9149C2.38219 27.6336 2.64808 27.535 2.96484 27.5812C3.96521 27.7276 4.9548 27.9265 5.92126 28.2271C7.98059 28.8667 9.90966 29.7661 11.5898 31.1411C13.5805 32.7704 14.9501 34.7865 15.3986 37.3622C15.6044 38.5452 15.5682 39.7414 15.5697 40.9337C15.5705 41.4824 15.6214 42.0342 15.5204 42.5822C15.4487 42.9691 15.2576 43.1656 14.9 43.1749C14.5162 43.1857 14.2503 42.993 14.2117 42.6053C14.1663 42.1475 14.1616 41.6843 14.1586 41.2235C14.1485 39.5009 13.468 38.0458 12.3813 36.7541C10.658 34.7064 8.42451 33.4671 5.90431 32.6864C4.92397 32.3827 3.91435 32.2208 2.90318 32.0636C2.64191 32.0228 2.35829 32.0058 2.18489 31.7569C2.01764 31.5172 1.97911 31.2528 2.13556 30.9985C2.31051 30.7149 2.57717 30.5738 2.91783 30.6209C4.74748 30.8737 6.53397 31.2852 8.23723 32.0259C10.1432 32.8544 11.8341 33.9804 13.2399 35.5195C13.2985 35.578 13.3216 35.6751 13.4218 35.6952C13.4688 35.575 13.3724 35.5079 13.3285 35.4224Z" fill="#D8D7D7"/>
<path d="M23.5 35.3839C25.1917 33.6089 27.2318 32.3735 29.5369 31.5881C30.8533 31.1396 32.2121 30.8313 33.597 30.6548C34.1011 30.5909 34.4132 30.7812 34.4718 31.2105C34.5419 31.7261 34.3369 32.0012 33.7997 32.0644C32.871 32.1739 31.9593 32.365 31.0568 32.6039C28.942 33.1627 26.9959 34.0629 25.3813 35.5604C24.0179 36.8243 22.9289 38.281 22.569 40.1723C22.431 40.8975 22.4634 41.6281 22.448 42.3587C22.4364 42.9098 22.1305 43.2081 21.6472 43.1664C21.2842 43.1348 21.0037 42.8119 21.0099 42.4389C21.0299 41.2582 21.0199 40.0767 21.0715 38.8975C21.201 35.9342 22.4056 33.4779 24.6222 31.5111C26.9258 29.4672 29.6741 28.3774 32.6437 27.7593C32.9812 27.6892 33.3142 27.5851 33.6633 27.5805C34.1203 27.5735 34.4009 27.7909 34.4564 28.1909C34.5088 28.5662 34.2768 28.9123 33.8567 28.9986C32.955 29.1835 32.0471 29.3385 31.1639 29.602C28.9913 30.251 26.979 31.1966 25.3204 32.7843C24.5597 33.5126 23.8661 34.2987 23.4253 35.2744C23.3944 35.323 23.3628 35.3723 23.332 35.4209C23.3289 35.4525 23.3251 35.4841 23.322 35.5164C23.3497 35.5056 23.3775 35.4949 23.406 35.4841C23.4376 35.4509 23.4692 35.4178 23.5008 35.3846L23.5 35.3839Z" fill="#D8D7D7"/>
<path d="M20.859 20.4985C20.8767 21.2145 20.5399 21.8311 20.0713 22.3898C19.6066 22.944 19.195 23.5228 19.0332 24.2465C19.0031 24.3813 18.95 24.517 18.8791 24.6357C18.6016 25.0965 18.0182 25.0811 17.7646 24.6087C17.7045 24.4969 17.6559 24.3759 17.6228 24.2534C17.4509 23.6091 17.1087 23.0627 16.6849 22.5563C16.1762 21.949 15.7577 21.3016 15.7515 20.4638C15.7415 19.0311 16.8876 17.8188 18.2694 17.8149C19.6752 17.8111 20.8713 19.0303 20.8598 20.4985H20.859ZM18.3149 22.5748C18.4852 22.3004 18.6401 22.0384 18.8066 21.7848C18.9816 21.5182 19.1889 21.2715 19.3469 20.9956C19.6837 20.4076 19.4417 19.6392 18.8397 19.3178C18.2571 19.0072 17.5812 19.2446 17.2613 19.8766C16.9985 20.3968 17.1496 20.8715 17.444 21.3201C17.7238 21.7463 18.0783 22.1185 18.3149 22.5748Z" fill="#D8D7D7"/>
<path d="M2.99176 20.5176C4.06612 20.6795 5.19906 20.9307 6.30887 21.2868C7.45876 21.6552 8.54777 22.1554 9.56664 22.802C10.0029 23.0787 10.1185 23.498 9.88263 23.8825C9.71693 24.1523 9.47647 24.2694 9.16356 24.1546C9.02021 24.1022 8.87917 24.0367 8.74969 23.9573C7.01175 22.8945 5.10734 22.3057 3.11353 21.9696C2.9879 21.9488 2.86228 21.9242 2.73896 21.8949C2.34282 21.8016 2.07616 21.4725 2.11932 21.1365C2.16787 20.7604 2.49388 20.5061 2.9933 20.5184L2.99176 20.5176Z" fill="#D8D7D7"/>
<path d="M34.4196 21.2277C34.4134 21.5991 34.2276 21.8242 33.8654 21.9043C33.1872 22.0546 32.4982 22.1456 31.8277 22.3436C30.5468 22.7221 29.2897 23.149 28.1375 23.8388C28.0057 23.9174 27.877 24.003 27.7399 24.0716C27.3036 24.2897 26.9653 24.2095 26.7441 23.8442C26.536 23.5005 26.6285 23.1028 27.0377 22.8616C27.5996 22.5302 28.1768 22.218 28.768 21.9421C30.2994 21.2269 31.9178 20.8007 33.5864 20.5556C34.0612 20.4862 34.4157 20.783 34.4196 21.2292V21.2277Z" fill="#D8D7D7"/>
<path d="M19.5698 2.13569C19.576 2.86555 19.455 3.56073 19.0812 4.20118C18.8955 4.51871 18.6681 4.74838 18.2666 4.73297C17.8812 4.71756 17.6939 4.46245 17.5275 4.16419C16.9941 3.20929 16.9818 2.18194 17.1306 1.14457C17.2284 0.463265 17.7656 0.00854897 18.349 0.0386065C18.9517 0.0694347 19.455 0.582724 19.5244 1.25478C19.5544 1.54688 19.5552 1.84206 19.5698 2.13569Z" fill="#D8D7D7"/>
<path d="M25.8154 38.758C25.8154 37.8863 26.5037 37.1942 27.3723 37.1942C28.2378 37.1942 28.9715 37.9334 28.9607 38.7935C28.9499 39.6489 28.2462 40.3495 27.3838 40.3634C26.5183 40.378 25.8162 39.6582 25.8162 38.7572L25.8154 38.758Z" fill="#D8D7D7"/>
<path d="M9.22337 37.2135C10.055 37.1919 10.7771 37.8732 10.8087 38.7086C10.8411 39.5641 10.1297 40.3318 9.28117 40.358C8.45113 40.3842 7.68504 39.632 7.67348 38.7803C7.66192 37.9272 8.34554 37.2358 9.22337 37.2127V37.2135Z" fill="#D8D7D7"/>
<path d="M2.32088 36.8406C2.32859 36.016 3.02453 35.3308 3.8461 35.3393C4.68926 35.3478 5.43299 36.0961 5.40987 36.9123C5.38674 37.7408 4.67384 38.429 3.83377 38.4344C2.986 38.4398 2.3124 37.7308 2.32088 36.8406Z" fill="#D8D7D7"/>
<path d="M34.2299 36.8735C34.2369 37.6905 33.5093 38.4489 32.707 38.4589C31.9278 38.4689 31.1101 37.6805 31.0878 36.8974C31.0677 36.1761 31.8924 35.3537 32.6507 35.3398C33.4531 35.3252 34.2222 36.0728 34.2292 36.8735H34.2299Z" fill="#D8D7D7"/>
<path d="M3.97111 15.717C4.7711 15.6985 5.48708 16.3775 5.50789 17.1744C5.53024 18.0275 4.8867 18.7111 4.04201 18.7304C3.23354 18.7489 2.51062 18.0445 2.5006 17.2283C2.49058 16.4106 3.14722 15.7355 3.97188 15.7162L3.97111 15.717Z" fill="#D8D7D7"/>
<path d="M32.5395 15.7209C33.3727 15.7317 34.0979 16.4385 34.0748 17.2169C34.0509 18.0338 33.3272 18.7506 32.5434 18.7336C31.7018 18.7151 31.0922 18.0523 31.0821 17.1845C31.0721 16.3475 31.7835 15.6863 32.5395 15.7209Z" fill="#D8D7D7"/>
<path d="M24.7397 13.9567C24.9262 13.9483 25.0904 14.023 25.2515 14.1009C26.0584 14.4893 26.8653 14.8793 27.6699 15.2731C27.8071 15.3402 27.9428 15.4172 28.0645 15.5089C28.4067 15.7656 28.4799 16.1085 28.2788 16.45C28.0745 16.796 27.7416 16.9209 27.3562 16.739C26.5231 16.3467 25.7023 15.929 24.8753 15.5236C24.6241 15.4003 24.3567 15.3124 24.1725 15.0743C24.0129 14.8685 23.915 14.6604 24.0468 14.4168C24.1933 14.1471 24.396 13.9398 24.7397 13.956V13.9567Z" fill="#D8D7D7"/>
<path d="M12.5554 14.6181C12.5746 14.9872 12.3835 15.2292 12.0791 15.3826C11.202 15.8234 10.3242 16.2635 9.43786 16.6859C8.91995 16.9325 8.58007 16.8284 8.36581 16.4022C8.15849 15.9891 8.28874 15.6254 8.78045 15.3741C9.62437 14.9425 10.4768 14.5263 11.333 14.1186C11.5827 14 11.8463 13.8905 12.1407 14.0292C12.3997 14.1518 12.5276 14.3483 12.5554 14.6181Z" fill="#D8D7D7"/>
<path d="M28.3467 6.17335C28.332 6.49089 28.1918 6.72749 27.9266 6.86391C26.9848 7.34868 26.0407 7.83114 25.0881 8.29433C24.6766 8.49472 24.3136 8.3583 24.1116 7.98374C23.9167 7.62074 24.0145 7.24078 24.4292 7.02036C25.3425 6.53404 26.2642 6.06083 27.2006 5.61999C27.7062 5.38261 28.1509 5.5514 28.3012 5.96064C28.3274 6.03232 28.3336 6.11016 28.3467 6.17335Z" fill="#D8D7D7"/>
<path d="M11.8409 8.35612C11.6544 8.37076 11.4586 8.26595 11.269 8.16421C10.4783 7.74187 9.69139 7.31259 8.87444 6.94265C8.78118 6.90026 8.69255 6.84708 8.60855 6.78851C8.281 6.56115 8.18851 6.22589 8.35344 5.88447C8.49063 5.60085 8.87521 5.42898 9.19659 5.5153C9.30681 5.54459 9.41779 5.58389 9.51952 5.63553C10.3411 6.05094 11.1665 6.45864 11.9788 6.89178C12.4875 7.16307 12.6247 7.43127 12.5353 7.82588C12.4567 8.17192 12.2432 8.3515 11.8417 8.35612H11.8409Z" fill="#D8D7D7"/>
<path d="M12.876 20.2873C12.4351 20.2811 12.0629 19.737 12.3141 19.2091C12.7087 18.3806 13.1634 17.576 13.6937 16.8245C13.9496 16.4615 14.3395 16.4191 14.6763 16.6303C15.0077 16.8384 15.1372 17.2646 14.9291 17.6453C14.5052 18.4199 14.0559 19.1806 13.6097 19.9428C13.4694 20.1825 13.2475 20.2966 12.876 20.2873Z" fill="#D8D7D7"/>
<path d="M22.4073 16.5108C22.6092 16.5169 22.835 16.6379 22.9784 16.8661C23.4485 17.6144 23.8947 18.3774 24.2839 19.1712C24.4874 19.5867 24.3448 19.989 23.9757 20.1947C23.6157 20.3959 23.2604 20.2972 23.0038 19.8718C22.5475 19.1165 22.0882 18.3597 21.6851 17.5759C21.4131 17.0464 21.7684 16.5146 22.4073 16.5108Z" fill="#D8D7D7"/>
<path d="M23.9989 3.06434C23.9565 3.17763 23.9187 3.32715 23.8486 3.46048C23.5033 4.11635 23.1588 4.77299 22.7966 5.41884C22.5261 5.90131 22.1654 6.05159 21.8016 5.86817C21.4109 5.67087 21.2667 5.22463 21.5033 4.75141C21.8671 4.02464 22.1453 3.25239 22.6417 2.59498C22.8744 2.2867 23.1827 2.21965 23.5264 2.33988C23.8394 2.44932 23.9565 2.71675 23.9997 3.06511L23.9989 3.06434Z" fill="#D8D7D7"/>
<path d="M13.2957 2.26368C13.6433 2.29991 13.8907 2.44711 14.041 2.72456C14.4125 3.40972 14.7894 4.09257 15.1377 4.79005C15.3558 5.22704 15.231 5.66326 14.8842 5.85902C14.5412 6.0517 14.1373 5.92684 13.8869 5.49294C13.4715 4.77464 13.0676 4.04709 12.6977 3.30413C12.4541 2.81397 12.8202 2.25058 13.2957 2.26368Z" fill="#D8D7D7"/>
<path d="M9.62539 11.8759C9.30478 11.8759 8.98185 11.8998 8.66355 11.8697C8.31057 11.8358 7.99535 11.7187 7.8782 11.3164C7.78263 10.9904 7.88591 10.7414 8.12175 10.5272C8.28591 10.3777 8.50247 10.3723 8.69977 10.3676C9.3148 10.3514 9.93136 10.3468 10.5464 10.3645C11.0905 10.38 11.3903 10.6613 11.3895 11.109C11.3888 11.5468 11.0304 11.8643 10.5102 11.879C10.215 11.8875 9.9198 11.8805 9.62539 11.8805C9.62539 11.879 9.62539 11.8782 9.62539 11.8767V11.8759Z" fill="#D8D7D7"/>
<path d="M27.0022 11.8758C26.6955 11.8758 26.3879 11.8804 26.0812 11.875C25.5432 11.865 25.2334 11.6045 25.2196 11.1606C25.2034 10.6643 25.4307 10.4022 25.991 10.3729C26.6415 10.3398 27.2966 10.3383 27.9471 10.3668C28.475 10.3899 28.7471 10.7013 28.727 11.1675C28.7093 11.5853 28.3802 11.8666 27.8846 11.8781C27.5902 11.8851 27.2966 11.8797 27.0022 11.8797V11.8758Z" fill="#D8D7D7"/>
<path d="M21.9248 27.0296C21.9232 27.4581 21.5995 27.7934 21.1841 27.7957C20.8026 27.798 20.4597 27.4365 20.4705 27.0443C20.4813 26.6443 20.8181 26.2974 21.1972 26.2967C21.5903 26.2951 21.9263 26.6342 21.9248 27.0296Z" fill="#D8D7D7"/>
<path d="M16.1438 27.0417C16.1477 27.4864 15.8733 27.78 15.4517 27.7816C15.0217 27.7831 14.7203 27.4818 14.7026 27.034C14.688 26.6432 15.0294 26.3003 15.4271 26.3072C15.8417 26.3141 16.14 26.6193 16.1438 27.0417Z" fill="#D8D7D7"/>
<path d="M31.9884 9.8366C31.9806 10.2089 31.667 10.5233 31.3024 10.5256C30.9741 10.5272 30.6057 10.1449 30.6242 9.82273C30.6435 9.49441 31.015 9.18227 31.371 9.19538C31.7487 9.20925 31.9961 9.46666 31.9884 9.83737V9.8366Z" fill="#D8D7D7"/>
<path d="M5.201 10.5017C4.85341 10.5017 4.58212 10.225 4.58058 9.86819C4.57827 9.50365 4.89503 9.1892 5.26111 9.19228C5.64492 9.19537 5.90388 9.46203 5.89771 9.84969C5.89232 10.2304 5.60176 10.5025 5.201 10.5025V10.5017Z" fill="#D8D7D7"/>
<path d="M31.2525 13.4295C30.9034 13.4241 30.6922 13.1713 30.6969 12.7629C30.7007 12.3845 30.9119 12.181 31.2903 12.1895C31.6733 12.1979 31.9338 12.47 31.92 12.8476C31.9076 13.1914 31.6271 13.4357 31.2525 13.4303V13.4295Z" fill="#D8D7D7"/>
<path d="M32.0098 6.40379C32.0098 6.76448 31.7524 7.04116 31.4056 7.05118C31.0379 7.06197 30.7628 6.7822 30.7666 6.40147C30.7705 6.02614 31.0156 5.78337 31.3847 5.79031C31.7655 5.79724 32.0098 6.03693 32.0098 6.40456V6.40379Z" fill="#D8D7D7"/>
<path d="M5.26239 12.1857C5.64466 12.1811 5.88974 12.4146 5.89205 12.7845C5.89359 13.1822 5.67626 13.415 5.29476 13.4242C4.90786 13.4335 4.65661 13.1776 4.6597 12.7768C4.66278 12.4192 4.8963 12.1903 5.26239 12.1857Z" fill="#D8D7D7"/>
<path d="M5.18292 5.79117C5.55748 5.78808 5.81644 6.03317 5.82415 6.39925C5.83263 6.78152 5.56288 7.06283 5.19063 7.06052C4.83225 7.0582 4.57792 6.79462 4.57715 6.42546C4.57715 6.04242 4.81376 5.79425 5.18215 5.79117H5.18292Z" fill="#D8D7D7"/>
<path d="M2.88148 13.012C2.84988 13.2401 2.70422 13.3981 2.48148 13.3919C2.25413 13.385 2.11463 13.21 2.11925 12.975C2.12388 12.7507 2.27648 12.6158 2.48611 12.6197C2.70884 12.6243 2.86529 12.7553 2.88148 13.012Z" fill="#D8D7D7"/>
<path d="M34.1044 12.6333C34.2932 12.658 34.4627 12.7644 34.4651 13.011C34.4666 13.2044 34.3787 13.3663 34.1498 13.3686C33.904 13.3709 33.7637 13.2353 33.7599 12.9933C33.7568 12.7998 33.8261 12.6372 34.1044 12.6333Z" fill="#D8D7D7"/>
<path d="M2.54337 9.64612C2.77226 9.68388 2.87939 9.83956 2.8686 10.0477C2.85627 10.2719 2.67901 10.3929 2.47708 10.3806C2.27978 10.3683 2.17266 10.1987 2.17189 10.0022C2.17034 9.76635 2.33759 9.6808 2.54337 9.64612Z" fill="#D8D7D7"/>
<path d="M34.4265 9.99688C34.435 10.2412 34.3163 10.3676 34.1121 10.3768C33.8547 10.3892 33.7629 10.1919 33.7337 9.9807C33.7059 9.77877 33.8385 9.66933 34.0257 9.65469C34.2785 9.63542 34.3872 9.79804 34.4265 9.99611V9.99688Z" fill="#D8D7D7"/>
<path d="M15.2428 24.0754C15.4054 24.0978 15.5595 24.1756 15.5603 24.3722C15.5603 24.5587 15.4779 24.7321 15.2551 24.7436C15.0301 24.7552 14.9399 24.5841 14.9206 24.4015C14.8991 24.2034 15.0401 24.1086 15.2428 24.0747V24.0754Z" fill="#D8D7D7"/>
<path d="M21.3669 24.1355C21.5634 24.1078 21.6898 24.1787 21.6836 24.3929C21.6774 24.5964 21.5626 24.7405 21.3584 24.7321C21.1811 24.7251 21.0709 24.601 21.0617 24.4045C21.0516 24.1833 21.1634 24.1116 21.3669 24.1348V24.1355Z" fill="#D8D7D7"/>
<path d="M13.3294 35.4224C13.3733 35.5079 13.4704 35.575 13.4226 35.6952C13.3216 35.6752 13.2993 35.5781 13.2407 35.5195C13.27 35.4871 13.3001 35.4548 13.3294 35.4224Z" fill="#D8D7D7"/>
<path d="M23.4998 35.3838C23.4682 35.417 23.4366 35.4501 23.405 35.4833C23.3804 35.4624 23.3557 35.4416 23.3311 35.4201C23.3619 35.3715 23.3935 35.3222 23.4243 35.2736C23.4497 35.3098 23.4744 35.3468 23.4998 35.3831V35.3838Z" fill="#D8D7D7"/>
<path d="M23.4048 35.4842C23.3771 35.4949 23.3493 35.5057 23.3208 35.5165C23.3239 35.4849 23.3277 35.4533 23.3308 35.421C23.3555 35.4418 23.3801 35.4626 23.404 35.4842H23.4048Z" fill="#D8D7D7"/>
</g>
<defs>
<clipPath id="clip0_2007_1586">
<rect width="36.2031" height="46.9136" fill="white" transform="translate(0.209961 0.0370483)"/>
</clipPath>
</defs>
</svg>
