<svg viewBox="0 0 34 35" fill="none" xmlns="http://www.w3.org/2000/svg">
<path d="M26.1435 18.8852C28.658 17.496 31.1402 16.1251 33.67 14.7274C33.67 14.9936 33.67 15.1904 33.67 15.3866C33.6694 16.3816 33.6584 17.3766 33.6718 18.3715C33.6779 18.8175 33.5025 19.1008 33.104 19.3123C30.9045 20.4803 28.7177 21.672 26.5182 22.8394C26.23 22.9924 26.1167 23.1593 26.1331 23.4908C26.1636 24.1287 26.1423 24.7697 26.1423 25.4557C28.6531 24.0903 31.1384 22.7389 33.6408 21.3784C33.7108 21.6075 33.6621 21.8189 33.6657 22.0254C33.6761 22.5835 33.6548 23.1429 33.6743 23.7004C33.6865 24.0446 33.564 24.2493 33.2502 24.409C32.3485 24.8684 31.4626 25.3594 30.5706 25.839C28.6184 26.8888 26.6662 27.9386 24.7147 28.9902C24.3863 29.1669 24.3083 29.1297 24.3083 28.7538C24.3059 25.1693 24.3083 21.5849 24.3071 18.0005C24.3071 16.9647 24.3107 15.9289 24.2943 14.8937C24.2906 14.6677 24.3692 14.5647 24.5606 14.4575C26.3616 13.4485 28.1553 12.4261 29.9521 11.4086C29.996 11.3836 30.0466 11.3708 30.0697 11.302C29.5872 10.9467 29.2155 10.5117 29.1631 9.87379C29.1223 9.37783 29.2173 8.91782 29.5726 8.55529C29.7255 8.39932 29.6682 8.33351 29.5336 8.23785C27.908 7.08082 26.2824 5.92378 24.6611 4.76065C24.5465 4.6784 24.4576 4.67169 24.3308 4.71434C23.2213 5.09027 22.1636 4.99766 21.1729 4.34572C21.0766 4.28236 21.0005 4.24946 20.8738 4.32196C18.9374 5.42416 17.0121 6.54403 15.1062 7.69742C15.0928 7.70534 15.0904 7.73154 15.0709 7.77784C15.6126 7.73154 16.1384 7.74311 16.6672 7.79064C18.2502 7.9326 19.66 8.50046 20.9304 9.44059C21.7773 10.0675 22.4731 10.8243 22.8314 11.8278C23.2798 13.086 23.1336 14.6902 21.8937 15.6297C21.7255 15.7571 21.6932 15.9009 21.6932 16.0952C21.6969 20.7356 21.6914 25.3765 21.7012 30.0168C21.7012 30.313 21.6067 30.4634 21.3502 30.5993C19.7326 31.456 18.124 32.3285 16.5137 33.1979C15.5522 33.717 14.5883 34.2319 13.6348 34.7656C13.0651 35.0843 12.5631 35.0404 12.0293 34.6566C9.5538 32.8762 7.0746 31.1002 4.57348 29.357C3.93312 28.9104 3.28544 28.4662 2.6396 28.0269C2.1936 27.7235 1.77929 27.3439 1.31379 27.0648C0.918972 26.8284 0.856824 26.5122 0.857433 26.1253C0.857433 25.4252 0.857433 24.7258 0.857433 23.9818C1.24372 24.1202 1.51425 24.3858 1.81341 24.5954C4.40349 26.4105 6.98687 28.2341 9.57207 30.0552C10.4555 30.6779 11.3445 31.2933 12.2206 31.9257C12.5807 32.1853 12.928 32.2243 13.3192 32.008C14.6742 31.2592 16.0336 30.5183 17.3911 29.7737C18.1545 29.3552 18.9149 28.9317 19.6832 28.5229C19.8191 28.4504 19.8672 28.3736 19.8648 28.2237C19.8532 27.5334 19.8392 26.8425 19.855 26.1527C19.8617 25.8658 19.791 25.8536 19.5662 25.9797C18.2489 26.7139 16.9274 27.4396 15.6083 28.1707C14.882 28.5728 14.157 28.9774 13.4331 29.3844C12.9292 29.6677 12.4912 29.5702 12.0299 29.2412C8.84032 26.9655 5.63912 24.7051 2.44219 22.4397C2.03762 22.1528 1.63549 21.8621 1.22849 21.5788C0.995742 21.4161 0.861698 21.198 0.859261 20.9165C0.853168 20.136 0.856824 19.3561 0.856824 18.55C1.26566 18.6999 1.54958 18.9973 1.87373 19.2239C4.92016 21.3528 7.95624 23.4962 10.9954 25.6361C11.4085 25.9267 11.8252 26.2118 12.2316 26.5122C12.5923 26.7791 12.9427 26.7754 13.3271 26.5573C15.2799 25.4502 17.2272 24.3316 19.2013 23.2641C19.7124 22.9875 19.9403 22.6969 19.8733 22.104C19.8087 21.5331 19.8593 20.9488 19.8593 20.3651C19.6905 20.3304 19.579 20.434 19.4614 20.4998C17.5007 21.5977 15.5382 22.692 13.5855 23.8045C13.0243 24.1238 12.5411 24.1884 11.966 23.7753C9.07977 21.7013 6.16981 19.6596 3.26778 17.6075C2.6591 17.1773 2.04494 16.7545 1.43443 16.3268C1.06215 16.0648 0.795895 15.7699 0.845248 15.2532C0.893381 14.7499 0.870228 14.2381 0.85195 13.7312C0.833062 13.2054 1.0585 12.8581 1.51303 12.6028C3.13617 11.6907 4.75017 10.7615 6.36661 9.83723C6.904 9.52954 7.43713 9.21393 7.97513 8.90685C10.9375 7.21486 13.9011 5.52409 16.864 3.8327C18.542 2.8749 20.2224 1.92076 21.8974 0.956867C22.4341 0.647958 22.9344 0.638819 23.4504 1.01231C25.887 2.77498 28.3302 4.5279 30.7704 6.28509C31.5735 6.8633 32.3722 7.447 33.1795 8.01912C33.4817 8.23359 33.6645 8.50289 33.6657 8.87761C33.6682 9.95361 33.6633 11.0296 33.6682 12.1056C33.6694 12.3603 33.4659 12.4096 33.3063 12.4986C32.307 13.0549 31.306 13.6075 30.3043 14.1583C28.9736 14.8901 27.6435 15.6224 26.308 16.3444C26.1642 16.4224 26.141 16.5102 26.1423 16.6527C26.1484 17.3839 26.1447 18.1144 26.1447 18.8852H26.1435ZM12.0555 9.36747C11.7716 9.53137 11.5632 9.65384 11.353 9.77387C9.41792 10.8736 7.48222 11.9728 5.54712 13.0732C5.22481 13.2566 5.22542 13.2584 5.46791 13.5204C6.18322 14.2923 6.1753 15.2715 5.43196 15.9722C5.29853 16.0977 5.3558 16.1367 5.45816 16.2104C5.96631 16.5741 6.47202 16.9409 6.98017 17.3047C8.05495 18.0742 9.13156 18.8419 10.2057 19.6126C10.3367 19.7065 10.4507 19.7107 10.6115 19.651C11.8794 19.1819 13.0554 19.322 14.0698 20.2628C14.2666 20.4449 14.3848 20.423 14.5902 20.3054C16.2651 19.3452 17.9449 18.3935 19.6296 17.4515C19.8075 17.3522 19.8666 17.2559 19.8587 17.0555C19.8355 16.4967 19.8459 16.5071 19.2884 16.526C17.0401 16.6028 15.0295 15.9587 13.3338 14.4654C12.206 13.4716 11.5833 12.2287 11.6881 10.6805C11.718 10.243 11.852 9.83663 12.0561 9.36808L12.0555 9.36747ZM13.845 9.63251C13.951 9.70989 14.0406 9.77692 14.132 9.8415C14.2904 9.95239 14.3105 10.0298 14.1576 10.2016C13.5458 10.8901 13.5629 11.6468 14.188 12.2543C14.5914 12.646 15.0843 12.8556 15.6461 12.919C16.3821 13.0019 17.0651 12.7917 17.7499 12.5717C17.9882 12.4949 18.2252 12.4036 18.486 12.4285C18.7912 12.4578 19.041 12.6497 19.0837 12.8995C19.1257 13.1481 18.9758 13.3766 18.6779 13.5003C18.539 13.5582 18.3952 13.6069 18.2508 13.6483C17.6409 13.8238 17.0304 13.9956 16.3955 14.1754C16.6557 14.4337 16.8963 14.6652 17.1291 14.9053C17.2521 15.0326 17.388 15.0698 17.5647 15.0582C17.9821 15.0302 18.3994 14.9504 18.765 14.7773C19.2689 14.5385 19.615 14.6439 19.9068 15.0777C19.9824 15.1904 20.075 15.213 20.1932 15.1521C20.4332 15.029 20.6733 14.9059 20.8963 14.792C20.7409 14.6281 20.599 14.4526 20.4314 14.3082C20.2632 14.1632 20.2864 14.084 20.4454 13.939C21.0773 13.3644 21.1022 12.5126 20.5143 11.8875C20.0604 11.4049 19.476 11.2057 18.8308 11.1521C18.2185 11.1009 17.6537 11.305 17.0828 11.4744C16.7629 11.5694 16.4448 11.67 16.1042 11.6401C15.8057 11.6139 15.5662 11.4196 15.5145 11.1563C15.4523 10.8401 15.6674 10.6975 15.8989 10.5793C16.0409 10.5062 16.1914 10.452 16.3504 10.4142C16.8847 10.2857 17.4167 10.1431 17.9967 9.99382C17.6988 9.69344 17.4173 9.41012 17.1358 9.1262C17.0572 9.04699 16.9603 9.0805 16.8774 9.09756C16.4125 9.192 15.9355 9.25171 15.5017 9.44973C15.2159 9.58011 14.996 9.56488 14.7937 9.31812C14.7254 9.23465 14.6535 9.1591 14.5158 9.25536C14.3276 9.38636 14.1149 9.48324 13.8456 9.6319L13.845 9.63251Z" fill="#D8D7D7"/>
</svg>
