<svg xmlns="http://www.w3.org/2000/svg" width="48" height="48" viewBox="0 0 48 48">
    <g fill="none" fill-rule="evenodd">
        <circle cx="24" cy="24" r="24" fill="#C7DCE6" fill-rule="nonzero"/>
        <path fill="#006999" d="M34.176 30.12c-.827-.827-2.813-2.07-3.792-2.537-1.136-.546-1.552-.534-2.357.045-.669.484-1.102.934-1.873.765-.77-.163-2.289-1.316-3.763-2.784-1.473-1.474-2.621-2.993-2.784-3.763-.163-.777.287-1.204.765-1.874.58-.804.596-1.22.045-2.356-.467-.985-1.704-2.965-2.537-3.792-.827-.827-1.012-.647-1.468-.483 0 0-.675.27-1.344.714-.827.551-1.289 1.012-1.615 1.704-.32.692-.692 1.98 1.198 5.344 1.525 2.717 3.02 4.776 5.243 6.992l.005.006.006.005c2.222 2.222 4.275 3.718 6.992 5.243 3.364 1.89 4.652 1.518 5.344 1.198.692-.32 1.153-.782 1.704-1.615.444-.669.714-1.344.714-1.344.163-.456.35-.641-.483-1.468z"/>
    </g>
</svg>
