<svg width="41" height="42" viewBox="0 0 41 42" fill="none" xmlns="http://www.w3.org/2000/svg">
<path d="M3.71472 16.0076C3.72387 15.9783 3.73211 15.9491 3.74126 15.9189C3.90964 15.8585 3.91422 15.6754 4.00847 15.5592C4.06887 15.5546 4.13567 15.5656 4.18875 15.5437C4.6161 15.3634 5.0279 15.3789 5.37381 15.6983C5.74077 16.0378 5.7426 16.489 5.60716 16.9236C5.54128 17.135 5.55592 17.2631 5.71881 17.3958C5.82404 17.4819 5.91555 17.5853 6.01439 17.6795C6.74922 18.3896 7.50143 18.6495 8.48151 18.0419C9.26027 17.5587 10.1461 17.2476 10.9825 16.8568C11.5425 16.5951 11.5654 16.3892 11.0877 15.9966C9.53389 14.7201 7.84826 13.6393 6.10864 12.6382C5.81581 12.4698 5.52297 12.2886 5.39577 11.9601C5.20177 11.4614 5.47356 10.9151 6.0089 10.7229C6.27885 10.6259 6.56437 10.5746 6.84256 10.5023C6.94779 10.5216 7.04663 10.5206 7.1235 10.43C7.15461 10.4401 7.18298 10.4346 7.2086 10.4136C7.28913 10.4273 7.36417 10.4246 7.4145 10.3449C7.46758 10.3349 7.52157 10.3248 7.57464 10.3147C7.61399 10.2946 7.65334 10.2754 7.69269 10.2553C7.74394 10.2406 7.79518 10.2269 7.84551 10.2123C7.96905 10.1573 8.09168 10.1015 8.21522 10.0466C8.27561 10.0164 8.33601 9.98713 8.39641 9.95694C9.49728 9.46095 9.95575 8.57513 9.87247 7.4102C9.83404 6.86937 9.89261 6.40358 10.3264 6.04028C10.6521 5.74287 10.9157 5.3933 11.1884 5.04831C11.5078 4.64383 11.9553 4.53036 12.357 4.72161C12.7285 4.89914 13.0031 5.35395 12.864 5.79046C12.5784 6.68909 12.7871 7.6042 12.6819 8.501C12.5977 9.22211 12.9234 9.676 13.4569 10.0585C14.0179 10.7595 14.7335 11.3095 15.3283 11.9775C15.3723 12.0269 15.4144 12.0754 15.4738 12.0324C15.6678 11.8915 15.9506 11.8338 16.0449 11.6096C16.1062 11.4641 15.8866 11.3442 15.7914 11.2152C15.7109 11.1054 15.6047 11.0166 15.5132 10.9151C15.0895 10.4465 14.5551 10.075 14.2613 9.49206C14.2421 9.13792 14.3766 8.85789 14.7116 8.72795C15.0437 8.59892 15.3027 8.78286 15.5169 9.01255C16.1071 9.64489 16.6882 10.2855 17.2656 10.9141C17.3709 10.8876 17.358 10.8199 17.358 10.7631C17.3535 8.96679 17.3443 7.17044 17.348 5.37317C17.348 5.10138 17.2775 4.93117 17.0195 4.80031C16.7376 4.65664 16.4795 4.45623 16.2929 4.18811C16.0357 3.8184 16.0357 3.26934 16.2855 2.99023C16.518 2.73126 17.068 2.68642 17.4431 2.89872C17.5081 2.93533 17.5694 2.97925 17.6326 3.01952C17.7817 3.19705 17.9309 3.37549 18.1331 3.4972C18.2759 3.67473 18.4415 3.82572 18.6401 3.9392C18.8542 4.17987 19.1388 4.32171 19.4088 4.48369C20.1455 4.92477 20.9105 5.08217 21.7387 4.74358C22.3637 4.48826 22.8926 4.0966 23.3895 3.65368L23.3968 3.64911C23.4289 3.62166 23.4609 3.5942 23.4929 3.56675C23.5414 3.52923 23.5899 3.49263 23.6384 3.45511C23.7153 3.37183 23.7922 3.28856 23.869 3.20528C23.9267 3.1577 23.9862 3.11286 24.042 3.06344C24.494 2.66262 24.926 2.64066 25.2902 3.00121C25.6077 3.31509 25.6132 3.90168 25.2755 4.28236C25.1264 4.45074 24.9479 4.62187 24.7475 4.70972C24.3714 4.87352 24.3174 5.1389 24.3202 5.5086C24.333 7.21253 24.3183 8.91738 24.3138 10.6213C24.3138 10.6918 24.3202 10.7622 24.3257 10.8903C24.9141 10.2745 25.4549 9.70711 25.9976 9.14158C26.1339 8.99974 26.2584 8.84325 26.4432 8.75723C26.7452 8.61631 27.0124 8.68768 27.2284 8.91829C27.4517 9.15805 27.4782 9.43624 27.2668 9.69888C27.0875 9.92308 26.8861 10.129 26.694 10.3431C26.2538 10.7092 25.8621 11.12 25.4997 11.5767C25.6434 11.6709 25.7816 11.7386 25.8914 11.8375C26.1248 12.048 26.2977 12.0013 26.4926 11.7734C26.7562 11.4641 27.049 11.1795 27.33 10.8849C27.804 10.4181 28.2716 9.94504 28.7557 9.48749C28.9085 9.3429 28.9277 9.17361 28.9286 8.99425C28.9341 8.23471 28.9277 7.47608 28.936 6.71655C28.9387 6.43744 28.8417 6.18395 28.7786 5.9204C28.6587 5.41984 28.8344 4.9632 29.2297 4.74083C29.604 4.53036 30.057 4.62278 30.4047 5.02726C30.7799 5.46468 31.1368 5.91766 31.5605 6.31115C31.5852 6.33769 31.6099 6.36423 31.6355 6.38985L31.6429 6.39809C31.8753 6.65157 31.8131 6.95996 31.8021 7.25737C31.7591 8.41407 32.0675 9.38957 33.1894 9.94504C33.2196 9.95328 33.2489 9.96151 33.2791 9.96975C33.3093 9.98897 33.3385 10.0091 33.3687 10.0283C33.3999 10.0393 33.4319 10.0503 33.463 10.0613C33.4923 10.0796 33.5216 10.0988 33.5518 10.1171C33.7888 10.204 34.0093 10.3431 34.2738 10.3404C34.3076 10.3578 34.3415 10.3751 34.3754 10.3925C34.4596 10.4081 34.5428 10.4227 34.627 10.4383C34.6655 10.4548 34.7039 10.4712 34.7423 10.4886C34.8558 10.5023 34.9702 10.5161 35.0837 10.5307C35.134 10.6158 35.2118 10.6076 35.2923 10.5929C35.4149 10.6295 35.5366 10.6661 35.6593 10.7027C35.6885 10.7211 35.7187 10.7394 35.748 10.7577C35.813 10.7997 35.878 10.8409 35.9429 10.883C35.9695 10.9068 35.9969 10.9297 36.0235 10.9535C36.1177 11.0834 36.2129 11.2125 36.3072 11.3424C36.3081 11.6179 36.3465 11.8979 36.1882 12.1504L36.1873 12.1514C35.6565 12.6657 34.9821 12.9649 34.3635 13.3428C33.0219 14.1609 31.7453 15.0651 30.5383 16.0689C30.0954 16.4377 30.1101 16.542 30.6491 16.8028C31.7142 17.3181 32.7867 17.8186 33.8483 18.3421C34.1685 18.5004 34.4513 18.5068 34.7432 18.3009C35.004 18.1169 35.2713 17.9431 35.5311 17.7591C35.8871 17.5066 36.1214 17.2522 35.8944 16.7415C35.7041 16.3124 35.9713 15.8136 36.3822 15.5793C36.7519 15.3689 37.279 15.4091 37.5764 15.6718C37.9351 15.9884 38.0422 16.4505 37.8043 16.909C37.0987 18.2698 36.0043 19.1812 34.5428 19.6452C34.2518 19.7376 33.9663 19.6543 33.6973 19.5445C32.7739 19.1684 31.8542 18.7831 30.8888 18.3832C30.9446 18.6788 30.9895 18.9442 31.0453 19.2068C31.163 19.765 31.5147 20.0435 32.1004 20.0423C33.2745 20.0396 34.4477 20.0478 35.6217 20.0304C35.9173 20.0259 36.0463 20.0625 36.0335 20.4129C35.9988 21.3619 36.018 21.3491 35.058 21.3454C33.8849 21.3409 32.7108 21.3683 31.5367 21.3674C31.2356 21.3674 31.1029 21.4726 31.0984 21.7819C31.0947 22.0382 31.049 22.2962 31.0059 22.5506C30.9565 22.838 30.994 22.9579 31.3253 22.8178C32.0217 22.5223 32.7053 22.191 33.4438 21.9979C34.7057 21.6685 36.5277 22.4344 37.1619 23.5847C37.3083 23.851 37.4611 24.1081 37.6423 24.3543C37.9589 24.7853 37.9397 25.2996 37.6185 25.6483C37.2955 25.9997 36.7656 26.0967 36.3685 25.878C35.9603 25.6538 35.6849 25.058 35.9063 24.6169C36.1278 24.1768 35.9018 23.969 35.641 23.7366C35.2859 23.4218 34.8567 23.2168 34.4531 22.9734C34.293 22.8764 34.1722 22.935 34.0322 23.0036C32.9011 23.56 31.7618 24.099 30.5813 24.5437C30.2702 24.6609 30.3169 24.9583 30.218 25.1715C30.1357 25.349 30.3864 25.4314 30.5045 25.5147C32.1901 26.7043 33.8263 27.9681 35.6345 28.9783C36.2806 29.3398 36.395 29.6738 36.2513 30.2769C36.212 30.4416 36.1406 30.5175 36.0152 30.6026C35.5275 30.9357 34.9528 31.0382 34.4092 31.2222C34.2363 31.2807 34.0615 31.332 33.8894 31.3915C32.3713 31.9213 31.7765 32.7184 31.8295 34.3253C31.8506 34.9476 31.6904 35.406 31.2082 35.7822C30.8952 36.0265 30.6765 36.3623 30.4349 36.6744C30.0606 37.1576 29.6159 37.2838 29.1702 37.0496C28.8316 36.872 28.5992 36.2626 28.7456 35.8233C29.0925 34.781 28.8463 33.7049 28.9497 32.6497C28.9726 32.4136 28.774 32.2627 28.6285 32.1181C27.8507 31.3448 27.0554 30.588 26.2748 29.8166C25.8896 29.4359 25.7194 29.9273 25.5007 30.038C25.282 30.1497 25.5867 30.2869 25.6745 30.3803C26.1458 30.8781 26.6381 31.3558 27.1167 31.8472C27.481 32.2215 27.502 32.6378 27.1863 32.9316C26.8898 33.208 26.4954 33.1585 26.144 32.7861C25.5592 32.1647 24.9818 31.537 24.4007 30.9129C24.2433 31.0071 24.3165 31.1426 24.3165 31.2487C24.3129 32.819 24.3302 34.3894 24.3074 35.9597C24.3019 36.3596 24.4163 36.6213 24.7704 36.7952C25.0257 36.9205 25.217 37.1301 25.3753 37.3607C25.6178 37.7139 25.5062 38.4296 25.1904 38.6492C24.883 38.8633 24.2671 38.7627 23.9752 38.468C23.5442 38.0324 23.1882 37.5428 22.8862 37.0121C22.9063 36.9938 22.9256 36.9736 22.9439 36.9526C23.0921 36.9032 23.0335 36.776 23.0335 36.6826C23.0363 34.8387 23.0354 32.9938 23.0335 31.1499C23.0335 31.0776 23.0171 31.0053 23.0107 30.9504C22.5851 30.9998 22.1797 31.0611 21.7716 31.0877C21.573 31.1005 21.5163 31.1645 21.5181 31.3594C21.5309 32.4722 21.5337 33.585 21.5346 34.6977C21.5346 34.8478 21.6014 34.9375 21.6947 35.0501C21.9848 35.3987 21.8018 36.0439 21.3717 36.096C19.9688 36.2644 19.062 37.2399 18.0554 38.058C17.8668 38.2108 17.7159 38.4113 17.5255 38.5604C17.1311 38.8697 16.6498 38.8258 16.3377 38.4744C16.0238 38.1202 16.0375 37.5721 16.3853 37.2363C16.5262 37.0999 16.6818 36.9562 16.8593 36.8849C17.3123 36.7027 17.3617 36.3669 17.3571 35.9341C17.3361 34.2274 17.3489 32.5198 17.3489 30.7628C16.7678 31.3823 16.2032 31.9762 15.6477 32.5793C15.1499 33.1201 14.782 33.2318 14.4654 32.9179C14.1231 32.5793 14.1899 32.1675 14.6887 31.6514C15.2066 31.116 15.785 30.6393 16.2572 30.0554C15.5214 29.5851 15.5251 29.5887 14.9175 30.189C14.2778 30.8204 13.6381 31.4528 12.9838 32.0686C12.766 32.2736 12.6764 32.4896 12.6846 32.7888C12.7029 33.4129 12.6873 34.0389 12.6819 34.6639C12.6782 35.0592 12.6928 35.4436 12.8319 35.8297C13.0122 36.3303 12.7999 36.8272 12.3826 37.0468C11.9626 37.2683 11.5645 37.1511 11.1902 36.6963C11.1518 36.6497 11.1161 36.5993 11.0749 36.5545C10.3035 35.7263 9.73704 34.8927 9.79286 33.6152C9.84685 32.3871 8.89972 31.6999 7.74577 31.3732C7.17749 31.2121 6.61104 31.0456 6.05374 30.8497C5.65749 30.7106 5.39028 30.4416 5.35551 29.9831C5.31982 29.5182 5.57147 29.2401 5.93386 29.0332C7.76315 27.99 9.42956 26.7134 11.0978 25.4405C11.2104 25.3545 11.451 25.3326 11.3531 25.0827C11.268 24.864 11.2497 24.6124 10.9715 24.5117C9.81208 24.0926 8.71486 23.5353 7.61125 22.9926C7.39162 22.8846 7.23514 22.8856 7.03473 23.0283C6.6513 23.301 6.22852 23.5161 5.88078 23.8418C5.64651 24.0615 5.52572 24.261 5.6456 24.6279C5.87437 25.3298 5.36008 25.9997 4.67467 25.9814C3.98926 25.9631 3.48229 25.2484 3.76963 24.6261C3.98651 24.1557 4.26928 23.6991 4.60238 23.3028C5.27498 22.5021 6.23127 22.1471 7.20311 21.8899C7.75949 21.7426 8.31496 21.9933 8.84023 22.1846C9.47623 22.4161 10.0939 22.6989 10.7427 22.9688C10.6814 22.5049 10.6064 22.0748 10.5753 21.641C10.5551 21.3647 10.3913 21.3793 10.2037 21.3775C8.8018 21.3683 7.39986 21.3409 5.99883 21.3582C5.66756 21.3628 5.63919 21.253 5.64102 20.9812C5.64468 20.0359 5.63645 20.0414 6.58816 20.0432C7.80708 20.0469 9.02692 20.035 10.2458 20.0432C10.481 20.0451 10.5917 20.0103 10.6036 19.7312C10.621 19.3093 10.7052 18.8902 10.7684 18.4153C10.0912 18.6898 9.44512 18.9616 8.79173 19.2132C8.28568 19.4082 7.76956 19.7852 7.23605 19.6241C6.35572 19.3578 5.47447 19.0247 4.84213 18.2844C4.78357 18.2158 4.71127 18.1599 4.6463 18.0977C4.628 18.0721 4.60878 18.0465 4.58957 18.0199C4.54656 17.9614 4.50263 17.9037 4.45962 17.8452C4.34798 17.6374 4.21803 17.4443 4.03318 17.2924C3.74035 16.9108 3.63236 16.4826 3.71381 16.0076H3.71472ZM23.0207 8.23105V5.02909C22.6217 5.37591 22.2493 5.68614 21.7972 5.86275C21.5318 5.96616 21.4962 6.13545 21.5026 6.39168C21.5282 7.50079 21.5346 8.6099 21.5419 9.71901C21.5465 10.3898 21.5419 10.3898 22.2063 10.4895C22.3838 10.5206 22.5659 10.538 22.738 10.5874C22.9933 10.6616 23.0454 10.5609 23.0399 10.3239C23.0235 9.62658 23.0253 8.92927 23.0207 8.23105ZM28.7648 17.1003C28.7456 17.0682 28.7255 17.0362 28.7063 17.0042L28.6761 16.9209C28.4821 16.5329 28.2817 16.1485 27.9952 15.8173H27.9971C27.9632 15.7029 27.9046 15.6059 27.7957 15.5464C27.6228 15.1227 27.4288 15.1364 27.146 15.475C26.8303 15.853 26.467 16.1925 26.1248 16.5484C25.7029 16.9456 25.2801 17.3437 24.8583 17.7408C24.8271 17.7701 24.7969 17.7985 24.7658 17.8278C24.656 17.8882 24.5673 17.9321 24.4593 17.7948C24.2808 17.5688 24.0859 17.351 23.8709 17.1597C23.6732 16.9831 23.6357 16.8715 23.8535 16.6628C24.6551 15.8941 25.4311 15.098 26.2263 14.322C26.3874 14.1646 26.4377 14.0676 26.2291 13.9065C24.9534 12.9201 23.5405 12.2648 21.9281 12.0663C21.6224 12.0287 21.5163 12.091 21.5254 12.4305C21.5501 13.3282 21.53 14.2277 21.5199 15.1273C21.5163 15.4604 21.6179 15.9408 21.4458 16.0882C21.2555 16.2501 20.8034 16.0854 20.4676 16.1037C20.2242 16.1165 20.1546 16.0415 20.1546 15.8054C20.1555 14.9983 20.1491 14.1902 20.1235 13.384C20.1089 12.9457 20.3559 12.3353 20.0183 12.1129C19.6742 11.8869 19.1086 12.1514 18.6575 12.2758C17.3864 12.6281 16.2206 13.1836 15.4244 13.9605C16.2151 14.8381 16.9874 15.7011 17.7671 16.5567C17.9748 16.7845 18.2054 16.9776 17.7955 17.2357C17.6463 17.3299 17.5145 17.4754 17.4175 17.6255C17.2034 17.9559 17.0057 17.9403 16.7532 17.6667C15.9424 16.7891 15.1215 15.9198 14.2805 15.0211C13.0241 16.4762 12.3817 18.0026 12.1502 19.7156C12.1136 19.9902 12.2188 20.0423 12.4695 20.0405C13.704 20.0286 14.9385 20.0341 16.173 20.0341C16.2315 20.5163 16.1776 20.9986 16.1638 21.48C15.0428 21.4754 13.9227 21.4708 12.8017 21.4653C12.3362 21.4629 12.1267 21.6877 12.1731 22.1397C12.1547 22.2157 12.1731 22.2807 12.2344 22.331C12.2435 22.4198 12.2536 22.5085 12.2627 22.5973C12.2481 22.6723 12.2682 22.7346 12.3286 22.7831C12.3359 22.8435 12.3433 22.9029 12.3515 22.9633C12.3332 23.0402 12.3606 23.1006 12.421 23.1491C12.4265 23.1784 12.4311 23.2077 12.4366 23.236C12.7185 24.3964 13.338 25.3756 14.0655 26.2998C14.2201 26.4966 14.2924 26.4426 14.4352 26.2952C15.052 25.6638 15.6797 25.0425 16.3084 24.4229C16.5665 24.1685 16.8227 23.7531 17.1064 23.7293C17.4111 23.7037 17.5987 24.2115 17.8879 24.4257C18.1212 24.5986 18.0563 24.6938 17.8934 24.8695C17.1476 25.6748 16.335 26.4096 15.5443 27.1692C15.3155 27.3888 15.3366 27.5233 15.5727 27.6972C16.8392 28.6288 18.2237 29.2629 19.7977 29.4771C20.1665 29.5274 20.1592 29.3929 20.1537 29.1284C20.1354 28.2151 20.1317 27.3009 20.1253 26.3877C20.118 25.3527 20.1189 25.3618 21.1731 25.3628C21.466 25.3628 21.5566 25.4314 21.5501 25.7453C21.5254 26.8718 21.5437 27.9992 21.5364 29.1257C21.5346 29.3801 21.5776 29.5054 21.8878 29.4707C23.5478 29.2849 25.0092 28.6617 26.2748 27.5672C26.4158 27.4455 26.3874 27.4281 26.2712 27.3156C25.4604 26.5323 24.6725 25.7242 23.8535 24.95C23.5982 24.7085 23.578 24.5401 23.8507 24.3323C23.9441 24.239 24.052 24.1548 24.1298 24.0496C24.3806 23.7101 24.6395 23.5737 24.9516 23.9764C25.7368 24.7606 26.5265 25.5403 27.3016 26.3346C27.4279 26.4645 27.4791 26.4453 27.578 26.33C28.6852 25.0406 29.4063 23.5838 29.529 21.8643C29.6214 21.5989 29.55 21.4617 29.2462 21.4827C29.0064 21.4992 28.7648 21.4964 28.5242 21.5028C28.0355 21.5028 27.5478 21.5028 27.0591 21.5037C26.6473 21.5285 26.2236 21.3793 25.8246 21.5898L25.7981 21.5724L25.7697 21.587C25.421 21.598 25.5052 21.3299 25.4778 21.134C25.4842 20.9529 25.5245 20.7643 25.4906 20.5914C25.4 20.121 25.5849 20.0158 26.0369 20.0286C27.2174 20.0615 28.3997 20.0396 29.5894 20.0396C29.4823 18.9872 29.2617 18.0062 28.7685 17.1021L28.7648 17.1003ZM11.3119 34.6145C11.3687 33.9327 11.4492 33.3242 11.3623 32.7248C11.2708 32.0906 11.5398 31.6651 11.9745 31.2542C12.7368 30.534 13.4624 29.7745 14.2073 29.036C14.3272 28.917 14.4123 28.8539 14.2201 28.6947C13.4899 28.0934 12.8402 27.4117 12.3039 26.6293C12.163 26.4234 12.0733 26.3566 11.8345 26.5524C10.5304 27.6221 9.18797 28.6416 7.75766 29.542C7.61857 29.6299 7.43006 29.6857 7.36783 29.8889C7.66249 30.0179 7.93336 30.1579 8.21796 30.2577C9.59611 30.739 10.5625 31.5681 10.7061 33.121C10.7189 33.2546 10.7656 33.3873 10.8059 33.5173C10.9166 33.876 11.0054 34.2457 11.3138 34.6163L11.3119 34.6145ZM30.2556 34.6694C30.5484 34.3381 30.6985 34.0361 30.801 33.7012C31.0123 33.0066 31.2384 32.3157 31.4589 31.6239C31.5349 31.386 31.6712 31.224 31.9046 31.0922C32.6916 30.6457 33.4813 30.2082 34.4138 29.8916C32.7163 28.874 31.2063 27.7503 29.7266 26.5853C29.539 26.4371 29.475 26.4719 29.3533 26.6421C28.8216 27.3879 28.2039 28.0623 27.513 28.659C27.2586 28.8786 27.3062 28.9747 27.5121 29.1751C28.3283 29.9721 29.1254 30.7884 29.9344 31.5928C30.1723 31.8289 30.2821 32.0833 30.2656 32.4365C30.2318 33.1503 30.2556 33.8659 30.2556 34.6694ZM34.3131 11.6755C33.6808 11.4595 33.0704 11.2308 32.5223 10.8876C32.1974 10.6835 31.9988 10.7595 31.7591 10.9919C30.973 11.756 30.1714 12.5046 29.3844 13.2678C28.6395 13.9898 28.6441 13.9944 29.2462 14.8546C29.281 14.904 29.3276 14.9479 29.3523 15.0019C29.4512 15.2234 29.5491 15.2032 29.7156 15.0468C30.951 13.8837 32.3566 12.9539 33.7988 12.0736C33.9736 11.9674 34.1832 11.9025 34.3131 11.6755ZM7.33031 11.7048C8.77892 12.5696 10.1415 13.4188 11.3705 14.4648C11.6331 14.689 11.8573 15.1602 12.1676 15.076C12.4558 14.9973 12.6398 14.5563 12.8841 14.2881C13.0186 14.1408 13.0049 14.0319 12.8694 13.9038C11.7869 12.8789 10.7034 11.8549 9.62723 10.8217C9.50094 10.7 9.41858 10.7 9.27949 10.7906C8.69656 11.1704 8.04592 11.4156 7.33122 11.7048H7.33031ZM18.6474 5.24963C18.6392 5.40062 18.631 5.48664 18.631 5.57266C18.6328 7.13932 18.6319 8.70599 18.6438 10.2717C18.6447 10.3944 18.5248 10.6753 18.8387 10.5948C19.2102 10.4987 19.59 10.5042 19.9643 10.452C20.1391 10.4273 20.193 10.3779 20.1921 10.2058C20.1866 8.89816 20.1876 7.59047 20.1885 6.28187C20.1885 6.1565 20.1903 6.04303 20.0384 5.99453C19.5506 5.83713 19.1141 5.57724 18.6465 5.24963H18.6474ZM18.6758 30.9385V36.172C19.0794 35.8746 19.4573 35.5964 19.8352 35.3191C20.0228 35.1818 20.1839 35.0391 20.1839 34.7728C20.1811 33.6335 20.1857 32.4942 20.1921 31.3549C20.1921 31.1993 20.1738 31.1124 19.9789 31.0977C19.5433 31.0639 19.1105 30.9943 18.6758 30.9394V30.9385ZM30.2546 7.09906C30.2546 7.85768 30.24 8.55316 30.261 9.24681C30.2711 9.58632 30.1915 9.85261 29.9435 10.0979C29.1336 10.8986 28.3375 11.7139 27.5459 12.532C27.4572 12.6236 27.2183 12.7023 27.4407 12.9219C27.6301 13.1076 27.7335 13.007 27.8735 12.8752C28.968 11.8439 30.0634 10.8144 31.1661 9.7913C31.3171 9.65129 31.3345 9.51952 31.2558 9.35114C31.038 8.88352 30.9062 8.3857 30.7561 7.89429C30.6692 7.60877 30.5447 7.34248 30.2537 7.09906H30.2546ZM11.4025 7.13749C11.3568 7.11919 11.311 7.10089 11.2653 7.08167C11.2515 7.12468 11.2451 7.17135 11.2241 7.2107C10.8278 7.93455 10.7263 8.76638 10.3904 9.51219C10.3126 9.68515 10.4545 9.76293 10.5478 9.8517C11.6414 10.8858 12.7377 11.9162 13.834 12.9475C13.9474 13.0546 14.0518 13.1589 14.2101 12.985C14.3748 12.8047 14.233 12.7389 14.125 12.629C13.3023 11.7963 12.4869 10.9571 11.6652 10.1235C11.4858 9.94138 11.3934 9.74463 11.398 9.47925C11.4117 8.69867 11.4025 7.91808 11.4025 7.13749Z" fill="#D8D7D7"/>
<path d="M3.71097 22.6769C2.2953 22.9633 1.26947 22.3978 0.949178 21.1542C0.718571 20.2583 1.17795 19.2919 1.98142 18.828C2.42433 18.5726 2.87548 18.5736 3.34584 18.5772C3.62403 18.7026 3.90131 18.8289 4.1795 18.9542C4.21245 18.9799 4.24448 19.0055 4.27742 19.032C5.51373 20.153 5.24743 21.8798 3.71188 22.6778L3.71097 22.6769Z" fill="#D8D7D7"/>
<path d="M36.6375 20.6701C36.6219 19.5152 37.5755 18.5114 38.7605 18.5736C39.8678 18.6312 40.8223 19.6415 40.7637 20.7524C40.7033 21.8908 39.7306 22.8261 38.5336 22.7803C37.4803 22.7391 36.5981 21.7609 36.6375 20.671V20.6701Z" fill="#D8D7D7"/>
<path d="M18.8153 39.2396C18.8107 38.0308 19.7039 37.0708 20.8496 37.0525C21.9569 37.0351 22.9351 38.0179 22.9525 39.1362C22.9717 40.399 21.8443 41.2272 20.8295 41.262C19.9244 41.2931 18.6991 40.3295 18.8153 39.2396Z" fill="#D8D7D7"/>
<path d="M7.31453 31.9149C8.44834 31.9167 9.41927 32.8392 9.3845 33.9446C9.34698 35.1452 8.5307 35.9835 7.29256 35.9706C6.0471 35.9569 5.20063 35.1104 5.21253 33.8851C5.22259 32.8135 6.10018 31.8636 7.31453 31.9158V31.9149Z" fill="#D8D7D7"/>
<path d="M34.1906 35.9497C33.011 36.14 32.3229 34.8351 32.2927 33.9739C32.2533 32.8383 33.2078 31.9031 34.3755 31.893C35.5221 31.8838 36.3859 32.7221 36.3869 33.844C36.3878 35.1425 35.5495 35.946 34.1897 35.9487L34.1906 35.9497Z" fill="#D8D7D7"/>
<path d="M18.824 2.94175C18.6501 2.62054 18.7874 2.2728 18.7407 1.94062C18.8963 1.71184 18.7728 1.39339 18.9851 1.18291C19.8105 0.219305 20.6066 -0.060718 21.5547 0.267805C21.8457 0.368467 22.0855 0.547828 22.3243 0.731764C22.3481 0.755557 22.3719 0.77935 22.3957 0.803142L22.4076 0.818699C22.4332 0.847068 22.4588 0.876351 22.4844 0.905634L22.4899 0.91204C22.8551 1.40254 22.9887 1.95892 22.9566 2.56198C22.9502 2.62237 22.9447 2.68186 22.9383 2.74225C22.77 3.04332 22.6501 3.37002 22.4039 3.62808C21.4696 4.60815 20.3303 4.58162 19.18 3.54297C19.0839 3.36819 18.9869 3.19249 18.8908 3.0177C18.8954 2.9692 18.8954 2.92436 18.8249 2.94266L18.824 2.94175Z" fill="#D8D7D7"/>
<path d="M7.81543 9.6925C7.73398 9.70348 7.65254 9.71446 7.57018 9.72544C7.35788 9.72361 7.14557 9.72087 6.93327 9.71904C6.87378 9.7108 6.8143 9.70165 6.75391 9.69341C6.69168 9.67054 6.62945 9.64766 6.56722 9.6257C5.98888 9.35116 5.56976 8.92655 5.34281 8.32167C5.32634 8.28506 5.30987 8.24938 5.2934 8.21277C5.2934 7.85863 5.2934 7.50539 5.29248 7.15125C5.30987 7.11556 5.32725 7.08078 5.34373 7.0451C5.35288 7.00941 5.36203 6.9728 5.37118 6.93711C5.39863 6.88129 5.42517 6.82547 5.45262 6.76965C5.48648 6.70285 5.52034 6.63604 5.5542 6.56924C5.6448 6.45211 5.73448 6.33406 5.82507 6.21692C6.72737 5.47843 7.6681 5.38052 8.6555 6.04488C8.72321 6.12541 8.7891 6.20594 8.85773 6.28464C9.65479 7.19792 9.56328 8.44612 8.6317 9.21298C8.44685 9.36489 8.2318 9.47928 8.03139 9.61197C7.99937 9.62021 7.96825 9.62844 7.93622 9.63759C7.89596 9.65681 7.85569 9.67511 7.81451 9.69433L7.81543 9.6925Z" fill="#D8D7D7"/>
<path d="M36.154 8.59434C36.1393 8.62454 36.1256 8.65473 36.1109 8.68493C36.0231 8.71056 36.0094 8.78559 35.9929 8.85972C35.9682 8.89266 35.9435 8.92561 35.9188 8.95946C35.7971 9.08117 35.6744 9.20288 35.5527 9.32459C35.4319 9.37767 35.3011 9.41336 35.2242 9.53507C35.1537 9.50121 35.1116 9.5369 35.0778 9.59455C34.7264 9.67599 34.3768 9.76567 34.0108 9.72541C33.922 9.71443 33.8323 9.70253 33.7436 9.69155C33.7106 9.67416 33.6777 9.65677 33.6447 9.63939C33.5853 9.62017 33.5258 9.60187 33.4672 9.58265C33.0124 9.29714 32.6345 8.9494 32.4167 8.43877C32.2034 7.93638 32.2721 7.43673 32.3645 6.93067C32.9081 5.52782 34.6202 5.15171 35.6378 6.15649C35.7769 6.29376 35.9041 6.44201 36.0368 6.58476C36.1494 6.87028 36.2629 7.15487 36.3754 7.44039C36.3754 7.8046 36.3315 8.16058 36.2025 8.50374C36.186 8.53394 36.1695 8.56414 36.153 8.59525L36.154 8.59434Z" fill="#D8D7D7"/>
<path d="M23.5797 23.2359C22.8559 23.9222 22.0186 24.3871 21.0046 24.4072C19.3611 24.4402 18.1467 23.6578 17.5043 22.1195C17.465 22.0243 17.4147 21.9337 17.3698 21.8413C17.3799 21.8138 17.3744 21.79 17.3533 21.7699C17.3652 21.6647 17.3597 21.564 17.2737 21.4862C17.2664 21.4277 17.26 21.37 17.2527 21.3114C17.249 20.9765 17.2454 20.6416 17.2417 20.3066C17.282 19.6761 17.4705 19.0099 17.831 18.5808C18.4936 17.7929 19.341 17.1788 20.4702 17.0782C21.4182 16.993 22.3407 17.1642 23.0398 17.7023C23.6905 18.2028 24.2139 18.9404 24.4061 19.8216C24.6348 20.8676 24.4399 21.8385 23.9412 22.7655C23.8067 22.858 23.7371 22.998 23.6685 23.138C23.6401 23.1691 23.6108 23.2002 23.5825 23.2313L23.5797 23.2341V23.2359Z" fill="#D8D7D7"/>
</svg>
