<svg width="48" height="53" viewBox="0 0 48 53" fill="none" xmlns="http://www.w3.org/2000/svg">
<g clip-path="url(#clip0_2007_1854)">
<path d="M0.641113 26.6748C0.689191 26.3146 0.896648 26.1901 1.25426 26.1967C2.17564 26.2138 3.09767 26.1974 4.0197 26.2112C4.24297 26.2145 4.30817 26.1598 4.32134 25.926C4.51036 22.5369 5.42317 19.371 7.25735 16.493C7.78225 15.6691 8.34206 14.8702 9.00658 14.1523C9.19296 13.9515 9.18374 13.8342 8.95192 13.6735C8.39409 13.2856 7.8547 12.8707 7.30806 12.4663C7.21718 12.3913 7.12629 12.3155 7.03541 12.2404C6.92081 12.0843 6.851 11.9144 6.90698 11.7188C6.99128 11.4251 7.33243 11.3276 7.62551 11.543C8.30518 12.0435 8.98089 12.55 9.63685 13.0808C9.8127 13.2231 9.87724 13.1947 10.0175 13.0564C12.1165 10.9878 14.5598 9.44339 17.2996 8.38173C19.2095 7.64147 21.1629 7.03293 23.2349 6.94534C23.5049 6.93414 23.4555 6.76949 23.4555 6.61275C23.4528 4.69229 23.4489 2.77248 23.4456 0.852023C23.4449 0.396276 23.5753 0.176305 23.8454 0.173671C24.145 0.171036 24.2656 0.371249 24.2656 0.859926C24.2656 2.78039 24.2695 4.70085 24.2656 6.62065C24.2656 6.82482 24.2919 6.93414 24.5402 6.95061C27.0909 7.11657 29.4823 7.87461 31.7841 8.94417C33.9877 9.96829 35.9694 11.321 37.7009 13.0307C37.8636 13.1908 37.9571 13.1868 38.1296 13.0459C38.7072 12.5743 39.3006 12.1232 39.8907 11.6675C39.9855 11.5944 40.087 11.5239 40.1956 11.4765C40.3926 11.3902 40.5868 11.3981 40.7258 11.5878C40.8661 11.7801 40.8536 11.981 40.6988 12.1588C40.6132 12.2569 40.5098 12.3419 40.4057 12.4215C39.8683 12.8371 39.3296 13.2527 38.7876 13.6617C38.5946 13.8072 38.4938 13.877 38.727 14.1425C40.3748 16.0129 41.6274 18.1217 42.4118 20.4966C42.9966 22.2669 43.3766 24.078 43.432 25.9471C43.4385 26.1763 43.5215 26.2112 43.7217 26.2092C44.6761 26.1993 45.631 26.204 46.586 26.2026C46.8053 26.2026 46.9745 26.2843 47.0404 26.5049C47.1063 26.7256 47.043 26.9119 46.8665 27.0654C46.7618 27.1556 46.6426 27.1411 46.5234 27.1411C45.5796 27.1411 44.6359 27.1398 43.6921 27.1385C43.563 27.1385 43.4399 27.1029 43.432 27.319C43.3832 28.6144 43.2107 29.8941 42.9143 31.1566C42.9018 31.2093 42.9005 31.2653 42.8939 31.3193C42.5014 32.7122 41.9982 34.059 41.3594 35.3617C40.2766 37.568 38.7928 39.4555 36.9764 41.0974C35.459 42.4693 33.7605 43.5757 31.9178 44.445C30.2956 45.2103 28.5853 45.7359 26.811 46.0369C26.5041 46.0891 26.3496 46.2746 26.3474 46.5934C26.3434 47.4384 26.3414 48.2827 26.3375 49.1277C26.3375 49.2482 26.3493 49.374 26.319 49.4879C26.2565 49.723 26.1011 49.8455 25.8422 49.8488C25.5926 49.8521 25.5333 49.6756 25.4793 49.5011C25.4477 49.3997 25.4589 49.2837 25.4589 49.1744C25.4589 48.286 25.4504 47.3969 25.4675 46.5084C25.4721 46.2674 25.3997 46.2042 25.1751 46.2351C24.9584 46.2647 24.7378 46.2891 24.5204 46.2805C24.3176 46.2726 24.2912 46.3576 24.2919 46.5321C24.2972 47.7828 24.2919 49.0335 24.2919 50.2841C24.2919 50.9427 24.2972 51.6007 24.2952 52.2593C24.2939 52.7493 24.1542 52.9561 23.8381 52.9521C23.5299 52.9482 23.4114 52.7644 23.412 52.2764C23.414 50.4001 23.4127 48.5244 23.4258 46.648C23.4278 46.3866 23.387 46.2733 23.0847 46.2535C22.2364 46.1976 22.2364 46.1791 22.2364 47.0274C22.2364 47.7512 22.2377 48.4756 22.2364 49.1994C22.2364 49.3305 22.2417 49.4635 22.1824 49.5867C22.0975 49.7632 21.9592 49.862 21.7629 49.8383C21.5765 49.8159 21.4217 49.725 21.3934 49.5215C21.3691 49.3489 21.3658 49.1718 21.3651 48.9972C21.3612 48.1305 21.3526 47.2638 21.3664 46.3971C21.3704 46.1613 21.2927 46.077 21.0661 46.0408C19.8826 45.8531 18.7202 45.56 17.5933 45.1649C16.7523 44.8705 15.9396 44.4944 15.142 44.0775C13.5331 43.2372 12.0447 42.2295 10.6946 41.0283C9.51962 39.9831 8.50868 38.7851 7.63209 37.4738C6.79436 36.2199 6.10811 34.8895 5.5483 33.4913C5.08597 32.3374 4.71979 31.1579 4.53933 29.9244C4.41749 29.0939 4.32924 28.2594 4.31146 27.4204C4.30619 27.1839 4.22387 27.1326 4.0039 27.1352C3.09372 27.1471 2.18222 27.1299 1.27205 27.1477C0.915089 27.155 0.70829 27.0252 0.643089 26.6748H0.641113ZM30.1389 9.42034L30.0961 9.38609C30.0961 9.40058 30.0961 9.41572 30.0961 9.43021L30.1428 9.41375C30.0796 9.45919 30.133 9.48817 30.1587 9.52044C30.2074 9.5784 30.2522 9.64031 30.3049 9.69431C32.006 11.4521 32.9537 13.5306 32.9847 15.9984C32.9906 16.4456 32.9676 16.8914 32.901 17.3353C33.0196 17.3432 33.0413 17.2523 33.0887 17.1997C34.1998 15.9622 35.2397 14.6509 36.6741 13.7506C36.9119 13.6011 36.7117 13.5181 36.6267 13.4411C35.787 12.6856 34.9078 11.981 33.9555 11.3698C32.7759 10.6124 31.5661 9.91428 30.2311 9.45985C30.2001 9.44668 30.1699 9.43351 30.1389 9.42034ZM35.5394 15.8166C35.5222 15.8357 35.5045 15.8541 35.4873 15.8732C35.1251 16.2829 34.7629 16.6925 34.4013 17.1028C33.6775 17.9248 32.9709 18.7612 32.3261 19.6476C32.2622 19.7352 32.1094 19.8307 32.2089 19.9565C32.5836 20.4314 32.9748 20.8937 33.3798 21.3857C33.4595 21.2046 33.5181 21.0755 33.5735 20.9451C34.2933 19.2321 35.1179 17.5678 35.8963 15.8825C36.0432 15.675 36.1453 15.4504 36.2197 15.1172C35.9411 15.3819 35.7159 15.569 35.5446 15.81L35.5394 15.8166ZM15.823 31.011C15.8112 30.9919 15.7993 30.9728 15.7868 30.9537C15.7519 30.8049 15.6696 30.6804 15.5826 30.5579C15.4891 30.2951 15.3535 30.0548 15.196 29.8262C14.9129 29.7077 14.6204 29.7933 14.332 29.7854C14.2115 29.7834 14.0909 29.7801 13.9704 29.7801C11.9195 29.7808 9.86802 29.7821 7.81716 29.7834C7.70783 29.7208 7.67161 29.6221 7.67622 29.5022C7.72956 29.4179 7.78291 29.3329 7.8356 29.2486C7.85272 29.2276 7.86919 29.2058 7.88631 29.1848C8.07072 28.943 8.25512 28.7007 8.43953 28.459C8.54359 28.3641 8.61406 28.2469 8.66872 28.1191C8.74841 27.9308 8.61603 27.7642 8.61603 27.5817C8.61603 25.2885 8.60879 22.9946 8.60615 20.7014C8.60615 20.409 8.78924 20.2944 9.05334 20.2911C9.3451 20.2878 9.49526 20.4841 9.49591 20.893C9.49723 22.824 9.4913 24.755 9.49196 26.6867C9.49196 26.7611 9.42808 26.8566 9.54663 26.9264C9.90556 26.3989 10.2592 25.8727 10.6201 25.3517C10.7255 25.1996 10.8368 25.0455 10.9718 24.921C11.1147 24.7886 11.2926 24.7873 11.4526 24.9138C11.6021 25.0323 11.6877 25.1759 11.5896 25.3715C11.5356 25.4788 11.4921 25.5934 11.4256 25.6929C10.7532 26.6933 10.0775 27.6917 9.40239 28.6908C9.36024 28.7527 9.299 28.81 9.34773 28.8851H14.7014C12.5182 24.8426 10.4766 20.7732 8.40462 16.6609C7.48588 18.038 6.80358 19.454 6.32676 20.9701C5.82096 22.5777 5.48442 24.2143 5.42844 25.9043C5.42053 26.148 5.47915 26.2257 5.73139 26.2112C6.19109 26.1842 6.65276 26.1868 7.11312 26.1947C7.45822 26.2007 7.66634 26.3996 7.65448 26.6762C7.64197 26.962 7.43056 27.1438 7.09336 27.149C6.76472 27.1543 6.43543 27.1523 6.10613 27.1536C5.90723 27.1523 5.709 27.151 5.5101 27.1497C5.3257 27.3743 5.48903 27.6232 5.45939 27.8583C5.46005 27.8807 5.46071 27.9038 5.46137 27.9262L5.5213 28.515C5.52459 28.5835 5.52788 28.6513 5.53118 28.7198C5.5753 29.0972 5.59506 29.4778 5.70109 29.8453C5.71031 29.9092 5.71888 29.9731 5.7281 30.037C5.78869 30.2978 5.84994 30.5592 5.91053 30.82C5.94938 31.2382 6.09625 31.6288 6.22599 32.0233C7.5906 36.1843 10.0616 39.499 13.7452 41.9016C16.1471 43.4677 18.7498 44.4984 21.5785 44.9495C22.1192 45.0358 22.6658 45.128 23.2526 45.1043C23.1901 44.9778 23.1492 44.8896 23.1031 44.804C21.9216 42.6036 20.7427 40.4019 19.5573 38.2035C19.1147 37.3836 18.628 36.5841 18.2118 35.7556C17.8258 34.9876 17.4484 34.2131 17.0586 33.4459C16.9802 33.2957 16.9025 33.1462 16.8241 32.996C16.8076 32.971 16.7918 32.946 16.7754 32.921C16.7543 32.8788 16.7325 32.8373 16.7115 32.7952C16.6759 32.6483 16.6061 32.5179 16.5185 32.3961C16.4955 32.3506 16.4717 32.3052 16.4487 32.2597C16.454 32.2367 16.4474 32.2169 16.4289 32.2018C16.2373 31.829 16.0456 31.4562 15.854 31.0841C15.8434 31.0598 15.8336 31.0361 15.823 31.0117V31.011ZM11.5679 15.2825C11.6133 15.264 11.6001 15.2351 11.5758 15.2127C11.5665 15.2041 11.5283 15.2074 11.527 15.2127C11.5152 15.2496 11.531 15.2739 11.5698 15.2812C11.6153 15.4149 11.6502 15.5538 11.7088 15.6816C12.4484 17.3031 13.1913 18.9232 13.9335 20.5433C14.0573 20.814 14.1805 21.0854 14.3175 21.3863C14.7291 20.897 15.1071 20.4459 15.4878 19.9974C15.5892 19.8775 15.5062 19.7991 15.4397 19.7122C14.2799 18.2007 13.0839 16.7189 11.743 15.3615C11.7002 15.318 11.6673 15.2153 11.5685 15.2831L11.5679 15.2825ZM17.6085 9.40255C16.7214 9.66863 15.9212 10.1244 15.1164 10.5656C14.2602 11.0352 13.4574 11.5884 12.6605 12.1522C12.0974 12.5506 11.5883 13.0064 11.097 13.4858C10.9982 13.582 10.9343 13.6465 11.0983 13.7565C12.2561 14.5337 13.1966 15.5426 14.1015 16.5898C14.3241 16.8473 14.4624 17.1806 14.7311 17.3478C14.7311 16.9856 14.7311 16.6148 14.7311 16.2447C14.7311 14.3776 15.2257 12.66 16.2649 11.1004C16.6673 10.4965 17.1521 9.96565 17.6421 9.4368C17.6704 9.42824 17.7007 9.41704 17.6763 9.38148C17.6724 9.37555 17.6315 9.39465 17.6078 9.40255H17.6085ZM39.1768 28.2864C39.3447 28.5565 39.5225 28.8186 39.7445 29.0484C39.7722 29.0899 39.7998 29.1307 39.8275 29.1722C40.1489 29.767 40.1436 29.7801 39.4534 29.7801C37.2148 29.7801 34.9763 29.7801 32.7371 29.7722C32.5533 29.7722 32.4492 29.8098 32.3597 29.9889C31.5865 31.532 30.8034 33.0698 30.0164 34.6056C28.4819 37.6003 26.8762 40.556 25.2864 43.521C25.0045 44.0466 24.7167 44.5689 24.417 45.1188C24.6726 45.1076 24.8925 45.105 25.1105 45.0872C27.2727 44.9094 29.3334 44.3377 31.3013 43.4413C34.4303 42.0161 37.0192 39.9165 39.0115 37.109C40.2549 35.3564 41.1341 33.4189 41.715 31.3522C41.9936 30.3603 42.182 29.3474 42.2465 28.3154C42.2557 28.1112 42.2656 27.9071 42.2748 27.7023C42.3203 27.6509 42.3176 27.5916 42.3031 27.5304C42.3045 27.4204 42.3064 27.3104 42.3077 27.2004C42.3183 27.155 42.2992 27.1398 42.2557 27.1484C41.6195 27.1405 40.9833 27.1332 40.3465 27.1253C40.3083 27.0957 40.2701 27.0667 40.2319 27.0371C39.9394 26.553 40.1113 26.2198 40.6672 26.2099C41.0946 26.202 41.524 26.1908 41.9501 26.2171C42.2478 26.2356 42.3367 26.1532 42.3209 25.845C42.1879 23.2726 41.5695 20.8292 40.4189 18.5228C40.1001 17.8833 39.7623 17.255 39.3072 16.6827C37.2399 20.7778 35.1897 24.8492 32.9774 28.8818H38.4411C38.0486 28.3016 37.6758 27.7628 37.3163 27.2156C36.931 26.6301 36.5516 26.04 36.1808 25.4453C36.0531 25.2411 36.0847 25.0382 36.3033 24.9059C36.5075 24.7827 36.7077 24.8038 36.8592 24.9994C36.9995 25.1812 37.1266 25.3735 37.2557 25.5645C37.5678 26.0255 37.8774 26.4885 38.1876 26.9501C38.2442 26.7559 38.2436 26.5919 38.2442 26.4272C38.2455 24.6055 38.2455 22.7845 38.2508 20.9629C38.2521 20.5124 38.4326 20.2766 38.7401 20.2885C39.0358 20.2997 39.1373 20.4623 39.1366 20.9556C39.1346 22.8978 39.1346 24.8393 39.1215 26.7815C39.1188 27.1846 39.1458 27.5923 39.053 27.992C39.0266 28.048 39.0556 28.0836 39.0971 28.1152C39.1234 28.1725 39.1504 28.2298 39.1768 28.2871V28.2864ZM23.439 9.76873C23.439 9.24251 23.4351 8.71564 23.441 8.18942C23.4436 8.00106 23.3982 7.92203 23.1815 7.93586C21.6101 8.0386 20.1849 8.52794 18.9678 9.54152C17.9621 10.3792 17.1712 11.3797 16.5778 12.5651C15.7987 14.122 15.5148 15.7303 15.8382 17.4315C16.5225 21.0294 19.5698 23.808 23.1855 24.1597C23.2546 24.1663 23.3778 24.2183 23.3903 24.1314C23.4199 23.9167 23.4212 23.696 23.4087 23.4787C23.3995 23.3147 23.2381 23.345 23.1308 23.3094C22.355 23.0539 21.7965 22.5784 21.5581 21.7696C21.5001 21.5734 21.5179 21.4252 21.7115 21.329C21.919 21.2263 22.0928 21.2711 22.2292 21.4568C22.3458 21.6162 22.4544 21.7808 22.5743 21.9369C22.7323 22.1424 22.9424 22.2807 23.1841 22.3663C23.3514 22.4256 23.4469 22.3979 23.4403 22.1799C23.4258 21.6755 23.4305 21.171 23.4331 20.6665C23.4351 20.3583 23.6056 20.1614 23.8651 20.1528C24.1325 20.1436 24.282 20.3188 24.2847 20.6619C24.2879 21.1664 24.2939 21.6715 24.2794 22.1753C24.2735 22.3933 24.3215 22.4381 24.5336 22.3617C24.9656 22.2063 25.2324 21.8902 25.4497 21.5088C25.5775 21.2856 25.7685 21.2184 26.0082 21.3297C26.2492 21.4417 26.2143 21.6346 26.1465 21.8322C25.8771 22.6192 25.3417 23.1237 24.5303 23.3114C24.3657 23.3496 24.3057 23.4128 24.309 23.5676C24.311 23.6769 24.309 23.7876 24.3011 23.8962C24.2853 24.105 24.3525 24.1893 24.5823 24.1584C27.951 23.7052 30.2271 21.8553 31.5101 18.7414C31.9184 17.7496 31.9639 16.7143 31.9454 15.646C31.9217 14.2788 31.5147 13.0512 30.8126 11.925C29.4118 9.67653 27.4564 8.2296 24.749 7.9543C24.5869 7.93784 24.4039 7.83839 24.2682 7.93191C24.095 8.05178 24.2787 8.23026 24.2761 8.38568C24.2603 9.37292 24.2649 10.3601 24.2609 11.3474C24.2609 11.4238 24.2484 11.5002 24.2405 11.5766C24.2162 11.8058 24.0765 12.0224 23.877 12.0126C23.6623 12.002 23.4871 11.8301 23.4673 11.5436C23.4258 10.9509 23.4627 10.3595 23.4377 9.76741L23.439 9.76873ZM30.9674 27.0305C31.0096 26.962 31.0366 26.9271 31.0537 26.8876C31.6938 25.4222 32.332 23.9555 32.9761 22.4915C33.0249 22.3808 33.0044 22.315 32.93 22.2307C32.552 21.8045 32.1733 21.3784 31.8084 20.9405C31.6491 20.7488 31.5792 20.7666 31.4423 20.976C30.4959 22.4263 29.2755 23.5768 27.685 24.3006C26.7208 24.7392 25.7224 25.0646 24.6535 25.1041C24.365 25.1146 24.2636 25.2101 24.2794 25.5137C24.307 26.0386 24.2926 26.5668 24.2754 27.0931C24.2682 27.315 24.3222 27.3894 24.5494 27.3288C25.0888 27.1853 25.5702 26.9475 25.9733 26.5517C26.3349 26.1967 26.5449 25.7548 26.7478 25.303C26.8519 25.0712 27.002 24.8835 27.3096 25.0106C27.5882 25.1258 27.5849 25.3287 27.5243 25.5796C27.1818 27.0035 26.0378 28.0164 24.4644 28.2772C22.6013 28.5861 20.7888 27.5053 20.1823 25.7212C20.1513 25.629 20.1329 25.5309 20.1223 25.4341C20.0999 25.224 20.1777 25.0745 20.3897 25.0033C20.6136 24.9283 20.779 25.0047 20.8903 25.1956C20.9838 25.3557 21.0556 25.5289 21.1372 25.6955C21.564 26.5688 22.2614 27.0963 23.194 27.344C23.41 27.4013 23.4324 27.3328 23.4291 27.1504C23.4199 26.6564 23.4245 26.1631 23.4239 25.6692C23.4234 25.3201 23.2513 25.1298 22.9075 25.0982C22.8963 25.0969 22.8858 25.0962 22.8746 25.0955C20.8501 24.8822 19.1173 24.0451 17.6427 22.6528C17.0816 22.1226 16.6008 21.5273 16.1648 20.8924C16.1102 20.8127 16.0674 20.6665 15.9324 20.8292C15.5761 21.2599 15.2184 21.6893 14.8523 22.1114C14.7212 22.2623 14.6995 22.3986 14.7818 22.5856C15.1625 23.4471 15.5372 24.3112 15.8994 25.1812C16.1194 25.7094 16.3262 26.2435 16.5113 26.7842C16.6133 27.0819 16.7128 27.0351 16.8741 26.8434C17.0078 26.6841 17.1415 26.5207 17.2983 26.3851C17.5005 26.2099 17.4998 26.0419 17.3925 25.8088C17.0809 25.1324 16.7945 24.4448 16.4981 23.7612C16.396 23.5261 16.4757 23.3562 16.6911 23.2423C16.9064 23.1283 17.0763 23.2133 17.2028 23.3918C17.2779 23.4978 17.3312 23.6209 17.3839 23.7408C17.6361 24.3164 17.8844 24.8934 18.1354 25.4736C18.2572 25.3557 18.3573 25.2569 18.46 25.1614C18.6016 25.029 18.7544 24.9737 18.9316 25.0988C19.0976 25.2167 19.1259 25.3722 19.0818 25.5625C19.0455 25.7199 18.9612 25.8457 18.8545 25.955C18.6925 26.1216 18.6524 26.2784 18.7597 26.5082C19.0844 27.2024 19.3867 27.9077 19.6877 28.6124C19.7759 28.8192 19.8892 28.9022 20.1289 28.8996C21.3579 28.8844 22.5868 28.893 23.8157 28.8923C25.0559 28.8923 26.2953 28.889 27.5355 28.8917C27.7475 28.8917 27.8944 28.8587 27.9899 28.6203C28.2415 27.9894 28.5102 27.3631 28.8164 26.7578C28.9916 26.4121 29.0134 26.1414 28.7091 25.8753C28.6465 25.82 28.6011 25.7337 28.5728 25.6527C28.501 25.4492 28.5214 25.2529 28.7144 25.1265C28.8928 25.0093 29.07 25.056 29.2241 25.1937C29.2807 25.2444 29.3321 25.3023 29.3828 25.3596C29.4856 25.4769 29.5567 25.5111 29.6245 25.3201C29.7088 25.083 29.8201 24.8558 29.9242 24.626C30.1007 24.2367 30.2752 23.8468 30.4629 23.4629C30.5446 23.2963 30.6901 23.1863 30.8864 23.2067C31.0458 23.2232 31.1854 23.3002 31.2335 23.4668C31.2855 23.6473 31.2019 23.8146 31.1327 23.972C30.895 24.514 30.6447 25.0501 30.4004 25.5895C30.2274 25.971 30.2822 26.3091 30.565 26.6037C30.6934 26.7374 30.8192 26.8731 30.9674 27.0292V27.0305ZM23.3784 40.3572C23.41 40.2261 23.4232 40.1978 23.4232 40.1694C23.4245 37.977 23.4219 35.7845 23.4291 33.5921C23.4291 33.4017 23.3666 33.3497 23.1874 33.3497C22.9332 33.3497 22.6994 33.245 22.7185 32.9631C22.737 32.6997 22.9846 32.622 23.2164 32.6516C23.4226 32.6779 23.4278 32.5811 23.4272 32.4323C23.4239 31.8185 23.4272 31.2047 23.4239 30.5909C23.4239 30.5237 23.4706 30.4354 23.3692 30.3887C23.1354 30.5671 22.9029 30.7476 22.6671 30.9241C22.1943 31.2784 21.7168 31.6275 21.2472 31.9871C21.1445 32.0661 20.993 32.1366 21.1017 32.3282C21.5377 33.0968 21.8189 33.9365 22.1811 34.7393C22.4024 35.2293 22.3721 35.4131 22.1027 35.5323C21.8169 35.6587 21.618 35.527 21.4178 35.0574C21.0832 34.2744 20.7559 33.488 20.4207 32.6924C20.1658 32.7925 20.0947 32.9256 20.2172 33.1949C20.6973 34.2513 21.1557 35.3176 21.6233 36.3792C22.1943 37.676 22.7672 38.9721 23.3784 40.3572ZM27.2727 32.6832C26.9618 33.5025 26.6009 34.2882 26.2427 35.0752C26.0391 35.5224 25.833 35.664 25.5794 35.5527C25.3081 35.4335 25.2725 35.1793 25.4787 34.7216C25.8323 33.9326 26.1919 33.1462 26.5515 32.3592C26.5917 32.2709 26.6681 32.1952 26.5496 32.1043C25.806 31.5346 25.0651 30.9623 24.2748 30.3544C24.2748 31.0967 24.2807 31.773 24.2715 32.4494C24.2688 32.6582 24.4039 32.6048 24.5125 32.6081C24.7529 32.616 24.9735 32.6885 24.992 32.9532C25.0098 33.218 24.7898 33.3642 24.5646 33.3596C24.2774 33.3537 24.286 33.4966 24.2866 33.6981C24.2893 35.8142 24.2866 37.9309 24.2866 40.047C24.2866 40.0937 24.2583 40.1589 24.3406 40.1734C24.3571 40.1583 24.3782 40.1464 24.3874 40.128C25.1724 38.5493 25.7652 36.885 26.5568 35.307C26.8914 34.6399 27.1383 33.9247 27.463 33.2476C27.5842 32.9954 27.5849 32.8143 27.2734 32.6832H27.2727ZM37.5474 14.3855C37.0825 15.3694 36.6471 16.277 36.223 17.1898C35.5124 18.7184 34.8103 20.2509 34.0984 21.7789C34.0075 21.9738 34.0279 22.1167 34.1708 22.2801C34.4145 22.558 34.6338 22.857 34.8663 23.1514C34.9387 23.0032 35.0125 22.8458 35.0915 22.691C36.2414 20.4518 37.3907 18.2119 38.5452 15.9747C38.6216 15.8258 38.6486 15.7132 38.5412 15.5584C38.2607 15.1534 37.8668 14.8537 37.5474 14.3848V14.3855ZM10.1631 14.4257C9.81138 14.8307 9.49789 15.1949 9.18111 15.5558C9.07112 15.6809 9.09022 15.7863 9.16596 15.9319C9.92861 17.3985 10.6834 18.8692 11.4361 20.3418C11.9103 21.2698 12.3773 22.2023 12.8574 23.1514C13.1037 22.8306 13.3217 22.529 13.5608 22.2451C13.6615 22.1253 13.6727 22.0304 13.6088 21.8941C13.4692 21.5971 13.3414 21.2935 13.2117 20.9918C12.2679 18.7987 11.2043 16.6616 10.1637 14.4263L10.1631 14.4257ZM16.3947 29.7709C16.998 30.9781 17.5756 32.1346 18.165 33.3135C18.7459 32.8492 19.3149 32.3908 19.8892 31.939C20.015 31.8402 19.9847 31.752 19.932 31.6288C19.7008 31.0861 19.4723 30.5415 19.2602 29.9909C19.1957 29.8236 19.1213 29.7623 18.9349 29.7656C18.1031 29.7781 17.2713 29.7709 16.3953 29.7709H16.3947ZM29.5244 33.3273C30.1172 32.1339 30.6961 30.9669 31.2888 29.7735C30.4129 29.7735 29.5916 29.7788 28.7703 29.7689C28.5991 29.767 28.5227 29.8236 28.4595 29.979C28.2336 30.5362 27.9985 31.0894 27.7502 31.6374C27.681 31.7895 27.708 31.8771 27.8285 31.9726C28.3916 32.4184 28.9515 32.8683 29.5244 33.3267V33.3273ZM28.2547 33.3958C27.897 34.4496 27.3985 35.3848 26.9836 36.3568C26.3006 37.9559 25.5808 39.5385 24.8682 41.1244C24.7628 41.3589 24.7384 41.673 24.3801 41.7178C24.309 41.727 24.3044 41.8456 24.3031 41.9207C24.2991 42.3184 24.3011 42.7169 24.3011 43.1213C24.3874 43.0903 24.3973 43.0212 24.4262 42.9658C25.8659 40.2498 27.3043 37.5338 28.746 34.819C29.0917 34.1683 29.095 34.1703 28.5616 33.6843C28.474 33.6046 28.3884 33.5223 28.254 33.3958H28.2547ZM23.3593 43.1476C23.3791 43.1423 23.3982 43.1371 23.4179 43.1325C23.4179 42.7386 23.4179 42.3454 23.4179 41.9516C23.4179 41.8443 23.4403 41.7086 23.2849 41.6961C23.0076 41.673 22.9398 41.455 22.8529 41.2575C22.1152 39.584 21.3829 37.9085 20.6446 36.235C20.2343 35.3044 19.8174 34.3765 19.3906 33.4195C19.2023 33.5828 19.0541 33.7482 18.873 33.8608C18.6076 34.0254 18.6174 34.1874 18.7538 34.4436C20.2955 37.3414 21.8261 40.2452 23.3593 43.147V43.1476ZM33.6064 23.0717C32.9722 24.5502 32.3445 26.0169 31.7116 27.481C31.6596 27.6015 31.6293 27.7023 31.7175 27.8149C31.8486 27.9808 31.9751 28.1508 32.1088 28.3259C32.8372 26.9646 33.5484 25.6343 34.2597 24.3039C34.2801 24.2651 34.3071 24.2288 34.3203 24.1873C34.3506 24.0912 34.4685 24.0042 34.3605 23.891C34.1056 23.6236 33.9041 23.3068 33.6064 23.071V23.0717ZM14.0534 23.0519C13.8354 23.3042 13.6385 23.5505 13.4225 23.7777C13.2934 23.9134 13.296 24.0266 13.3836 24.1814C13.5812 24.5338 13.7524 24.9013 13.952 25.2523C14.5157 26.2454 14.9524 27.3071 15.5589 28.2831C16.099 27.7681 16.0944 27.7701 15.8191 27.1234C15.3785 26.0874 14.9458 25.0475 14.5058 24.0115C14.3702 23.6921 14.2529 23.3621 14.054 23.0513L14.0534 23.0519ZM18.0227 26.8731C17.3925 27.5495 16.7872 28.1995 16.1444 28.8884C17.0355 28.8884 17.862 28.8884 18.6886 28.8884C18.8229 28.8884 18.9026 28.8673 18.8269 28.7C18.5588 28.1047 18.3 27.5053 18.0221 26.8731H18.0227ZM31.5134 28.8838C30.9088 28.2364 30.322 27.6068 29.7339 26.9785C29.6291 26.8665 29.587 26.9607 29.5521 27.0443C29.3236 27.5903 29.0983 28.1369 28.8691 28.6822C28.8158 28.8094 28.8072 28.8864 28.9864 28.8851C29.8155 28.8805 30.6447 28.8831 31.514 28.8831L31.5134 28.8838ZM22.6797 29.8203C22.6395 29.794 22.6151 29.7637 22.5914 29.7637C21.8235 29.7656 21.0556 29.7742 20.2876 29.7729C20.1197 29.7729 20.1131 29.8295 20.1612 29.9691C20.3002 30.3715 20.5254 30.7397 20.6064 31.1665C20.6327 31.3041 20.7506 31.2857 20.8606 31.2007C21.4599 30.7404 22.0639 30.2866 22.6797 29.8203ZM25.0223 29.7821C25.6848 30.2998 26.2848 30.7654 26.8808 31.2363C26.9658 31.3035 27.0112 31.2942 27.0501 31.1987C27.2417 30.7318 27.434 30.2648 27.6329 29.7814H25.0223V29.7821Z" fill="#D8D7D7"/>
<path d="M20.5757 16.332C20.4993 14.4359 21.912 12.8454 23.7436 12.7842C25.7938 12.7157 26.9805 14.3984 27.1202 15.6504C27.3783 17.964 25.7016 19.4215 23.9675 19.492C22.1774 19.5651 20.5836 18.0404 20.5757 16.332Z" fill="#D8D7D7"/>
<path d="M17.7333 13.6121C17.8018 13.6306 17.8979 13.649 17.9901 13.6813C18.5809 13.8887 19.14 14.1713 19.7117 14.4235C19.875 14.496 19.9896 14.6152 19.9784 14.7897C19.9679 14.9583 19.8671 15.0913 19.6913 15.1519C19.6445 15.1684 19.6208 15.2039 19.5516 15.1756C18.899 14.9043 18.241 14.6468 17.5884 14.3761C17.4079 14.3017 17.2597 14.1732 17.3157 13.9487C17.3638 13.7557 17.483 13.6187 17.7333 13.6121Z" fill="#D8D7D7"/>
<path d="M30.402 14.0369C30.4244 14.2193 30.29 14.3332 30.1379 14.3918C29.5182 14.6309 28.9142 14.9115 28.2714 15.0926C28.0416 15.1578 27.8704 15.1104 27.7867 14.8963C27.6971 14.6678 27.844 14.5117 28.0337 14.4248C28.4611 14.2292 28.8971 14.0533 29.3291 13.8696C29.5195 13.7886 29.7045 13.6885 29.9015 13.6285C30.1807 13.5442 30.4033 13.7286 30.4013 14.0375L30.402 14.0369Z" fill="#D8D7D7"/>
<path d="M29.232 19.6337C29.2413 19.9551 28.9824 20.16 28.7282 20.0342C28.2086 19.7767 27.7416 19.4322 27.3247 19.0285C27.1858 18.8941 27.1766 18.7216 27.2925 18.5504C27.4216 18.3594 27.5869 18.4061 27.7581 18.4661C28.2481 18.636 28.5813 19.0456 29.0213 19.2926C29.1655 19.3736 29.2024 19.5244 29.2327 19.6337H29.232Z" fill="#D8D7D7"/>
<path d="M20.1556 18.4291C20.3176 18.4139 20.4375 18.4824 20.5 18.6273C20.5593 18.765 20.5646 18.9066 20.4381 19.0192C20.0034 19.4045 19.5339 19.7436 19.0327 20.0374C18.8614 20.1375 18.7073 20.0769 18.5967 19.934C18.492 19.799 18.4143 19.6146 18.5565 19.4848C19.009 19.0719 19.5121 18.7241 20.0581 18.4416C20.0851 18.4278 20.1227 18.4337 20.1556 18.4298V18.4291Z" fill="#D8D7D7"/>
<path d="M29.133 12.5709C29.1166 12.7046 29.0586 12.8311 28.9388 12.922C28.5548 13.2124 28.1695 13.5002 27.7849 13.7887C27.615 13.9164 27.4503 13.9454 27.2929 13.7663C27.1329 13.5838 27.1474 13.41 27.3193 13.2493C27.7118 12.8831 28.1419 12.5617 28.589 12.268C28.834 12.1073 29.1232 12.2785 29.1337 12.5703L29.133 12.5709Z" fill="#D8D7D7"/>
<path d="M20.537 13.4784C20.5468 13.7695 20.3143 13.9631 20.0878 13.8445C19.5741 13.5758 19.1157 13.2202 18.6863 12.8323C18.5375 12.6979 18.5612 12.5109 18.683 12.3568C18.8233 12.1789 19.0103 12.1855 19.1816 12.2929C19.6432 12.5813 20.041 12.9535 20.4586 13.2999C20.5244 13.3545 20.5251 13.4329 20.537 13.4777V13.4784Z" fill="#D8D7D7"/>
<path d="M21.485 19.7674C21.4632 19.9103 21.3895 20.0321 21.3025 20.1447C21.0753 20.4385 20.8461 20.7309 20.6123 21.02C20.445 21.2275 20.2415 21.3519 19.9946 21.157C19.7436 20.9588 19.8312 20.7309 19.9933 20.5248C20.2633 20.181 20.5326 19.8359 20.8507 19.5336C20.9778 19.413 21.1168 19.3907 21.2716 19.4572C21.4033 19.5145 21.4672 19.6238 21.4836 19.7667L21.485 19.7674Z" fill="#D8D7D7"/>
<path d="M26.6111 19.4209C26.7705 19.4195 26.8752 19.4834 26.9536 19.5743C27.2315 19.895 27.512 20.2158 27.7419 20.5747C27.8716 20.7776 27.9151 20.9988 27.6938 21.1569C27.4633 21.3216 27.2644 21.2201 27.1077 21.0081C26.8614 20.6748 26.6085 20.3468 26.3635 20.0123C26.266 19.8792 26.2456 19.7297 26.3457 19.5855C26.4155 19.4847 26.4939 19.3899 26.6104 19.4202L26.6111 19.4209Z" fill="#D8D7D7"/>
<path d="M18.4198 18.416C18.1214 18.4048 17.9851 18.2902 17.9284 18.092C17.8744 17.9036 17.9673 17.7673 18.1366 17.6975C18.6022 17.5052 19.0744 17.3319 19.5664 17.2173C19.7396 17.1772 19.8463 17.2562 19.897 17.405C19.9418 17.5361 20.0017 17.7218 19.8542 17.7923C19.3616 18.0274 18.8531 18.2303 18.4198 18.4153V18.416Z" fill="#D8D7D7"/>
<path d="M28.1194 17.2377C28.6212 17.3734 29.1389 17.4662 29.6025 17.7211C29.7613 17.8087 29.839 17.9457 29.7665 18.1334C29.6967 18.3145 29.5788 18.4423 29.3714 18.3929C28.8656 18.2723 28.3591 18.1452 27.9324 17.8238C27.8131 17.7343 27.7216 17.6243 27.7901 17.461C27.8494 17.32 27.9449 17.2225 28.12 17.2377H28.1194Z" fill="#D8D7D7"/>
<path d="M27.2768 11.1319C27.5106 11.1859 27.6568 11.3426 27.5903 11.5547C27.425 12.0802 27.0345 12.4583 26.6439 12.8231C26.5497 12.9114 26.4174 12.8501 26.3126 12.7724C26.1776 12.6717 26.1309 12.5143 26.202 12.3937C26.4608 11.9538 26.7276 11.5139 27.128 11.1806C27.1662 11.149 27.2287 11.1464 27.2762 11.1319H27.2768Z" fill="#D8D7D7"/>
<path d="M21.5739 12.48C21.5845 12.6579 21.4844 12.7586 21.348 12.8166C21.2176 12.8726 21.0793 12.8495 20.9884 12.7362C20.7224 12.4036 20.428 12.0895 20.237 11.7042C20.1421 11.5132 20.1408 11.3084 20.3463 11.1806C20.5406 11.0601 20.7092 11.1503 20.8323 11.3124C21.0576 11.6081 21.2743 11.9104 21.4903 12.2127C21.5476 12.293 21.5904 12.3839 21.5733 12.4794L21.5739 12.48Z" fill="#D8D7D7"/>
<path d="M25.9426 10.8481C25.8827 11.2196 25.7701 11.6167 25.6015 11.998C25.531 12.1574 25.4204 12.2364 25.2373 12.191C25.0476 12.1442 24.9363 12.0066 24.9712 11.836C25.0522 11.4369 25.072 11.022 25.2505 10.6459C25.3381 10.4622 25.4599 10.3416 25.6838 10.3904C25.8893 10.4358 25.9578 10.5458 25.942 10.8488L25.9426 10.8481Z" fill="#D8D7D7"/>
<path d="M22.8225 11.7707C22.7915 11.9756 22.7546 12.1415 22.5419 12.1922C22.3232 12.2443 22.2073 12.1297 22.1494 11.944C22.0315 11.5705 21.9182 11.1951 21.8168 10.8164C21.7661 10.6274 21.8227 10.4687 22.0275 10.4002C22.2212 10.3357 22.3825 10.3903 22.4655 10.5747C22.6407 10.964 22.721 11.3822 22.8231 11.7701L22.8225 11.7707Z" fill="#D8D7D7"/>
<path d="M28.8137 16.5396C28.6168 16.5396 28.4199 16.5356 28.2229 16.5409C28.028 16.5462 27.9279 16.4289 27.9292 16.263C27.9305 16.1122 27.9239 15.9212 28.1413 15.8718C28.5951 15.769 29.0547 15.7941 29.5098 15.8415C29.6844 15.8599 29.7937 16.0259 29.7739 16.2044C29.7542 16.3855 29.6541 16.5369 29.4374 16.5409C29.2293 16.5449 29.0218 16.5416 28.8137 16.5416C28.8137 16.5416 28.8137 16.5402 28.8137 16.5396Z" fill="#D8D7D7"/>
<path d="M18.9058 16.5363C18.699 16.5363 18.4908 16.5475 18.2854 16.5324C18.0852 16.5179 17.9613 16.3908 17.9659 16.1892C17.9706 16.0029 18.0588 15.8369 18.2682 15.8303C18.6594 15.8178 19.052 15.8191 19.4432 15.8389C19.6559 15.8494 19.8212 15.9495 19.7982 16.211C19.7758 16.4606 19.619 16.5383 19.3958 16.537C19.2324 16.5363 19.0691 16.537 18.9058 16.537V16.5363Z" fill="#D8D7D7"/>
<path d="M27.3005 42.4848C26.989 42.5178 26.8527 42.3729 26.7552 42.199C26.6531 42.0172 26.8112 41.8947 26.908 41.7755C27.0463 41.6069 27.2617 41.5608 27.456 41.493C29.3738 40.8272 31.1046 39.8294 32.6345 38.5023C34.6386 36.7636 36.1251 34.6463 37.1116 32.1818C37.2947 31.7247 37.4541 31.2578 37.6293 30.7974C37.6833 30.6552 37.7373 30.507 37.8236 30.3845C37.9362 30.2245 38.1048 30.1902 38.2918 30.264C38.4808 30.339 38.579 30.4859 38.5454 30.6756C38.4071 31.4587 38.1147 32.1983 37.7485 32.8918C37.6398 33.0979 37.6016 33.3126 37.5048 33.5135C35.6904 37.2655 32.919 40.05 29.1308 41.8019C28.6052 42.0449 28.052 42.2267 27.5093 42.4328C27.4184 42.4671 27.3196 42.4802 27.3012 42.4848H27.3005Z" fill="#D8D7D7"/>
<path d="M30.4095 36.6281C30.5083 36.6189 30.565 36.6959 30.6361 36.7407C31.1386 37.0555 31.6187 37.0456 32.0007 36.7111C32.3965 36.3633 32.4986 35.7785 32.2529 35.2694C32.1271 35.0093 31.9223 34.7847 31.9743 34.4534C32.0191 34.1676 32.0679 34.1261 32.3241 34.2644C33.0986 34.6806 33.443 35.9056 33.0248 36.7545C32.679 37.4559 32.0534 37.8122 31.2947 37.7385C30.7039 37.6812 30.3516 37.2399 30.4095 36.6274V36.6281Z" fill="#D8D7D7"/>
<path d="M34.9329 39.5259C34.6761 39.5239 34.3455 39.2038 34.3547 38.9667C34.3659 38.6815 34.6616 38.3977 34.954 38.3918C35.2793 38.3852 35.5415 38.6466 35.5303 38.968C35.5197 39.2848 35.2583 39.5291 34.9329 39.5259Z" fill="#D8D7D7"/>
<path d="M39.3671 34.1623C39.3625 34.4646 39.1194 34.7109 38.8277 34.7076C38.5471 34.705 38.3311 34.4652 38.337 34.1636C38.3436 33.8369 38.5583 33.6216 38.8698 33.6295C39.1682 33.6367 39.3717 33.8554 39.3664 34.1629L39.3671 34.1623Z" fill="#D8D7D7"/>
<path d="M35.8481 32.4735C35.8494 32.7706 35.6545 32.9866 35.3785 32.9951C35.1098 33.003 34.9228 32.8081 34.9195 32.5163C34.9155 32.2062 35.1039 32.0066 35.393 32.0152C35.6512 32.0231 35.8475 32.2206 35.8481 32.4735Z" fill="#D8D7D7"/>
<path d="M33.4271 31.6115C33.1723 31.6043 32.9687 31.3711 32.9859 31.1064C33.0037 30.8337 33.2164 30.6203 33.4653 30.625C33.7314 30.6296 33.929 30.8436 33.9204 31.1182C33.9112 31.4179 33.7097 31.6194 33.4271 31.6122V31.6115Z" fill="#D8D7D7"/>
<path d="M9.39844 30.27C9.80019 30.1791 9.92795 30.2436 10.0761 30.6171C10.1558 30.8179 10.2322 31.0195 10.3106 31.2203C10.3389 31.4324 10.4278 31.6227 10.5253 31.8098C10.5767 32.0278 10.6583 32.2339 10.7696 32.4289C11.0219 33.181 11.3999 33.8732 11.8017 34.5515C13.7195 37.7918 16.502 39.9968 19.9801 41.3673C20.2343 41.4674 20.4859 41.5767 20.7302 41.6986C20.937 41.802 21.0496 41.9778 20.9693 42.2129C20.8843 42.4599 20.6907 42.5396 20.4431 42.4849C19.7858 42.34 19.172 42.0726 18.5694 41.7868C15.0149 40.0995 12.2897 37.5435 10.4983 34.024C9.9543 32.9557 9.48538 31.8532 9.18308 30.6875C9.1732 30.5328 9.24104 30.4089 9.33917 30.297C9.35959 30.2878 9.38 30.2792 9.39976 30.27H9.39844Z" fill="#D8D7D7"/>
<path d="M15.3907 34.2267C15.4895 34.1852 15.5903 34.1622 15.697 34.1911C15.7615 34.5125 15.7457 34.805 15.5317 35.0901C15.3453 35.3384 15.2972 35.6519 15.3216 35.9667C15.3775 36.6978 16.0783 37.137 16.7738 36.8815C16.9569 36.8143 17.1143 36.7024 17.2822 36.5976C17.3817 37.2187 17.0247 37.6738 16.4096 37.7364C15.4579 37.8325 14.6063 37.2226 14.5286 36.1017C14.4746 35.3213 14.7486 34.6884 15.3907 34.2267Z" fill="#D8D7D7"/>
<path d="M12.6477 39.5166C12.3382 39.51 12.1314 39.2861 12.1373 38.9647C12.1439 38.6261 12.3876 38.3858 12.7182 38.3923C13.0034 38.3983 13.2596 38.6591 13.2583 38.9423C13.2569 39.288 13.0054 39.5245 12.6477 39.5166Z" fill="#D8D7D7"/>
<path d="M8.41472 33.9865C8.63469 33.6025 9.06607 33.5063 9.31963 33.7856C9.51787 34.0049 9.50733 34.2802 9.29131 34.5173C9.06278 34.7676 8.81383 34.7623 8.49705 34.4995C8.40287 34.3388 8.39628 34.1643 8.41538 33.9858L8.41472 33.9865Z" fill="#D8D7D7"/>
<path d="M11.8626 32.5223C11.8764 32.3392 11.9601 32.1937 12.0971 32.0758C12.1629 32.0508 12.2294 32.0257 12.2953 32.0014C12.4316 31.9889 12.5475 32.058 12.6714 32.0955L12.6681 32.0896C12.7728 32.2187 12.8386 32.3623 12.8373 32.5315C12.8031 32.7798 12.6523 32.9267 12.4244 33.0057C12.3598 33.0031 12.2946 33.0011 12.2301 32.9985C12.1478 32.9517 12.0648 32.905 11.9825 32.8575C11.8876 32.768 11.9522 32.5934 11.8086 32.5296L11.8382 32.5421L11.8633 32.5217L11.8626 32.5223Z" fill="#D8D7D7"/>
<path d="M11.6915 27.3886C11.6961 27.0666 11.9516 26.8038 12.2651 26.8011C12.5918 26.7979 12.8736 27.0804 12.8677 27.4044C12.8618 27.7337 12.5852 28.0097 12.2618 28.0083C11.9292 28.007 11.6869 27.7443 11.6915 27.3886Z" fill="#D8D7D7"/>
<path d="M14.0177 31.5417C13.83 31.3467 13.7285 31.1307 13.8701 30.8666C13.9656 30.6875 14.1178 30.6025 14.3252 30.6144C14.6427 30.6322 14.7862 30.837 14.7586 31.24C14.7072 31.3316 14.6552 31.4238 14.6038 31.5153C14.5037 31.5838 14.395 31.6273 14.2712 31.6247C14.1869 31.597 14.102 31.5693 14.0177 31.5423V31.5417Z" fill="#D8D7D7"/>
<path d="M35.4216 28.0051C35.0962 28.0018 34.8684 27.7529 34.8736 27.4071C34.8789 27.0758 35.1588 26.7979 35.4769 26.8065C35.7963 26.8157 36.0512 27.0791 36.0505 27.3992C36.0499 27.7502 35.7812 28.0084 35.4216 28.0051Z" fill="#D8D7D7"/>
</g>
<defs>
<clipPath id="clip0_2007_1854">
<rect width="46.4237" height="52.7778" fill="white" transform="translate(0.641602 0.172852)"/>
</clipPath>
</defs>
</svg>
